<svg xmlns="http://www.w3.org/2000/svg" viewBox="0 0 900 600" id="happy-family-celebrating-diwali-festival"><path fill="#e6560f" d="M646.008 496.752a16.146 16.146 0 0 1-1.62-.082l-393.372-39.628a15.827 15.827 0 0 1-13.933-12.892l-48.502-269.673a15.761 15.761 0 0 1 13.39-18.408l462.301-62.862a15.76 15.76 0 0 1 17.861 16.481l-20.427 372.164a15.766 15.766 0 0 1-15.698 14.9Zm-1.519-1.077a14.761 14.761 0 0 0 16.219-13.878l20.427-372.164a14.761 14.761 0 0 0-16.728-15.435L202.105 157.06a14.761 14.761 0 0 0-12.54 17.24l48.503 269.672a14.823 14.823 0 0 0 13.049 12.074Z" opacity=".31"></path><path fill="#ffe3c2" d="m653.447 505.901-383.864-38.67a14.892 14.892 0 0 1-13.165-12.181l-47.33-263.155a14.892 14.892 0 0 1 12.65-17.393l451.128-61.343a14.892 14.892 0 0 1 16.877 15.573L669.81 491.9a14.892 14.892 0 0 1-16.363 14.001Z"></path><path fill="#ffb957" d="M428.334 473.926a60.979 60.979 0 0 1-.196-1.209q.09.587.196 1.209ZM427.816 469.997q-.01-.125-.017-.247l.017.247ZM427.921 471.1ZM428.075 472.292a43.624 43.624 0 0 1-.07-.51q.033.251.07.51ZM487.856 425.682c-3.234 1.734-11.172 2.52-11.172 2.52h-.005c-10.72 14.18-26.217 29.795-48.164 46.739 2.216 11.912 8.554 31.499 8.554 31.499h61.182ZM427.737 467.987l-.002-.07ZM428.513 474.929q-.077-.417-.148-.82.071.404.148.82Z"></path><path fill="#ca5303" d="m469.295 432.786 3.57 60.859-6.56-60.61 2.99-.249zM466.541 435.988l-1.5 55.193-1.5-55.193h3zM462.667 440.283l-8.765 60.754 5.786-61.11 2.979.356z"></path><path fill="#5e1212" d="M579.832 292.961a13.301 13.301 0 0 1-6.57-8.065c-.41-1.84-3.422-10.052-9.992-5.672s-4.244 9.49-4.244 9.49-2.874-1.004-5.2-7.437c-2.328-6.433 1.165-8.653-11.29-13.307-12.457-4.654-8.558-12.09-24.436-11.08-15.878 1.01-12.866 13.3-12.866 13.3l-3.444 3.48c-.01.118-.01.234-.024.352-.34 2.773-1.546 2.416-3.102 7.3a38.609 38.609 0 0 0-1.643 9.673c-.088 1.39-.02 1.271 0 6.388.035 8.866-.168 9.06.183 11.132.767 4.538 1.925 4.7 1.642 7.3a7.185 7.185 0 0 1-.177.989s5.47 13.064 14.914 13.338c0 0 2.053-1.962-2.053-4.608s-11.857-8.122-9.693-28.653c2.165-20.532 4.218-25.46 11.199-27.786 0 0 1.78 4.38 8.76 5.612 6.98 1.232 7.254 6.98 7.254 8.897s-.137 5.797 5.065 7.895c5.201 2.097 1.232 9.787 1.232 12.033s-.411 7.858 4.653 11.417c5.065 3.558 2.327 11.192 2.327 11.192s14.099-1.474 18.753-20.363c0 0 9.855 14.481 17.246 6.077s5.749-16.653 1.506-18.894Z"></path><path fill="#fd8b66" d="M481.69 333.883a42.009 42.009 0 0 1-.547-4.927c-.071-1.61 0-2.92 0-2.92s6.04-3.126 9.308-6.57c1.566-1.651 1.978-5.26 2.737-12.41.19-1.789.61-6.114.73-14.236.1-6.71.15-10.064-.182-11.315-2.633-9.936-17.52-14.6-17.52-14.6a15.085 15.085 0 0 1-1.643 8.76c-1.067 1.932-2.02 2.076-8.212 6.752-3.942 2.977-5.933 4.497-6.936 6.023-.737 1.123-3.343 5.45-2.19 10.038.688 2.733 1.951 2.54 4.563 7.665 1.634 3.207 2.451 4.81 2.372 6.752-.108 2.667-1.486 3.138-2.372 7.483-.468 2.295-.736 3.612-.183 5.11.815 2.205 2.493 2.325 4.563 4.563.274.296 3.244 3.585 3.467 7.665.17 3.105-1.4 3.895-2.635 7.494l11.359 6.916 6.589-11.38a20.781 20.781 0 0 1-3.267-6.863Z"></path><path fill="#376f92" d="M425.48 456.07c-.822-1.917-1.004-14.419-1.004-17.156 0-2.738-3.011-27.193-4.79-38.006-1.78-10.814-2.601-35.725-2.601-35.725l3.422-8.076.323-.913c-.523-.112.461-7.302.817-9.9.907-6.625 1.29-7.321.913-9.49-.758-4.354-2.923-5.147-2.373-7.848a5.221 5.221 0 0 1 2.247-3.148c-12.428-3.648-32.725-7.072-32.725-7.072a17.246 17.246 0 0 1-13.323 13.322l-3.285 7.3-3.832-7.117c-11.133-3.103-13.14-24.638-13.14-24.638s-24.456-11.315-29.018-13.414-22.63-31.735-22.63-31.735l6.752-47.563s-11.863-7.482-17.338-7.665c-5.475-.182-20.44 54.569-21.353 62.735s35.451 57.991 41.063 66.888c5.612 8.897 8.165 22.037 8.165 22.037l16.473 60.226c-1.848 4.928-.274 9.445 1.232 15.604s-.547 7.529-3.97 10.963 0 11.485-1.368 15.318-9.855 45.443-9.855 45.443h112.787s-9.125-28.197-9.308-37.504-1.46-10.95-2.281-12.867Z"></path><path fill="#376f92" d="M424.2 346.686a30.794 30.794 0 0 0-2.925 8.252Z"></path><path fill="#fd8b66" d="M313.514 204.124s.593-1.825 5.658-3.56-4.152-10.493 5.292-12.683c0 0-.365 6.798 0 8.486s2.783 6.89-1.004 10.038-12.417 8.425-13.421 7.756a67.009 67.009 0 0 0-14.19-6.638 24.388 24.388 0 0 0 1.149-11.247c-.73-6.844 2.098-16.608 7.026-12.866a5.95 5.95 0 0 1 2.076 2.448c.874 1.818 1.338 4.753-.434 9.194 0 0-.06.09-.167.228-.623.806-2.905 3.323-4.851-.228a2.682 2.682 0 0 1 .958-1.924 2.654 2.654 0 0 0 .593-2.51M397.557 254.494c-5.265.672-11.225-.605-13.87-1.095-4.928-.912-20.258-7.847-20.258 5.476s-6.023 19.892-6.023 19.892c.548-8.942-6.023-7.3-6.023-7.3s-7.482 6.57 1.643 12.228c0 0 5.475 4.745 3.103 23.908 0 0 2.007 21.535 13.14 24.638l3.832 7.117 3.285-7.3a17.246 17.246 0 0 0 13.323-13.322s-2.92-5.11 0-13.87c0 0 13.14 2.554 11.133-18.251-2.008-20.805-3.285-32.121-3.285-32.121ZM542.327 326.141s2.738-7.634-2.327-11.192c-5.064-3.56-4.653-9.171-4.653-11.417s3.969-9.936-1.232-12.033c-5.202-2.098-5.065-5.979-5.065-7.895s-.273-7.665-7.254-8.897c-6.981-1.232-8.76-5.612-8.76-5.612-6.981 2.327-9.034 7.254-11.199 27.786-2.165 20.531 5.587 26.007 9.693 28.653s2.053 4.608 2.053 4.608a9.933 9.933 0 0 1 .177 1.032c.19 1.53.269 4.423-1.409 6.36 0 0-3.285 20.622 11.863 20.44 0 0 10.95-14.053 18.433-19.163 0 0-3.377-2.344-.32-12.67Z"></path><path fill="#490000" d="M357.406 278.767s6.023-6.57 6.023-19.892 15.33-6.388 20.258-5.476 21.352 4.563 23.36-6.752-11.68-13.688-18.98-10.585-13.14 2.372-22.813 1.825-6.935 8.76-6.935 8.76-8.943-2.373-8.03 8.577 1.094 16.243 1.094 16.243 6.57-1.642 6.023 7.3Z"></path><path fill="#d04719" d="M353.756 275.026s-2.008.091-1.643 2.464 1.643 1.277 1.643 1.277"></path><path fill="#490000" d="M369.726 262.635a.75.75 0 0 1-.495-1.314c.04-.035 4.114-3.523 8.636-.808a.75.75 0 0 1-.771 1.286c-3.573-2.143-6.745.537-6.879.653a.75.75 0 0 1-.49.183ZM388.522 264.187a.75.75 0 0 1-.656-1.111 4.946 4.946 0 0 1 2.86-2.201 5.83 5.83 0 0 1 4.572.916.75.75 0 0 1-.775 1.285 4.417 4.417 0 0 0-3.408-.752 3.458 3.458 0 0 0-1.935 1.474.75.75 0 0 1-.658.389ZM371.642 271.213a.75.75 0 0 1-.472-1.333c.115-.093 2.839-2.249 5.371-.488a.75.75 0 0 1-.856 1.231c-1.62-1.125-3.553.409-3.573.424a.748.748 0 0 1-.47.166ZM390.44 270.71a.75.75 0 0 1-.472-1.333c.115-.092 2.84-2.25 5.37-.488a.75.75 0 0 1-.856 1.232c-1.618-1.126-3.552.408-3.572.423a.748.748 0 0 1-.47.167Z"></path><path fill="#d04719" d="M383.868 267.318a72.198 72.198 0 0 1 3.918 7.382 15.926 15.926 0 0 1 1.526 3.964 7.693 7.693 0 0 1 .096 2.267 2.103 2.103 0 0 1-.592 1.318.742.742 0 0 1-.428.186.609.609 0 0 1-.393-.04 1.32 1.32 0 0 1-.518-.343l.084-.181c.373.015.687-.12.582-.24-.022-.097-.068-.38-.141-.652a28.812 28.812 0 0 0-.625-1.808c-.48-1.23-.683-2.593-1.087-3.903a95.437 95.437 0 0 0-1.273-3.927l-1.33-3.937Z"></path><path fill="#490000" d="M386.613 289.019a7.068 7.068 0 0 1-5.662-3.376.75.75 0 0 1 1.273-.795c.109.173 2.708 4.202 6.765 2.02a.75.75 0 0 1 .71 1.32 6.458 6.458 0 0 1-3.086.831Z"></path><path fill="#5e1212" d="M393.952 281.14a6.847 6.847 0 0 0-5.771.754 6.847 6.847 0 0 0-5.772-.754c-3.194 1.186-8.03-.821-8.03-.821s5.931 8.304 13.505 3.832h.593c7.574 4.472 13.505-3.832 13.505-3.832s-4.836 2.007-8.03.82Z"></path><path fill="#d04719" d="M389.71 304.865s-12.776-1.368-17.156-4.471c0 0 1.742 6.855 15.883 10.962a20.073 20.073 0 0 1 1.272-6.49Z"></path><path fill="#133852" d="M373.101 339.358c.346 2.85.581 5.704.8 8.56.231 2.854.383 5.713.535 8.571.128 2.86.255 5.72.303 8.584l.07 4.295c-.013 1.434.008 2.866-.036 4.301-.183-1.424-.301-2.851-.454-4.277l-.348-4.282c-.23-2.855-.382-5.713-.533-8.572-.127-2.86-.253-5.72-.301-8.583-.06-2.863-.102-5.727-.036-8.597Z"></path><path d="M377.116 343.413a1.5 1.5 0 0 0 0-3 1.5 1.5 0 0 0 0 3ZM377.846 355.459a1.5 1.5 0 0 0 0-3 1.5 1.5 0 0 0 0 3ZM378.576 365.679a1.5 1.5 0 0 0 0-3 1.5 1.5 0 0 0 0 3Z"></path><path fill="#133852" d="M374.773 430.245a36.369 36.369 0 0 0 7.19-1.754 38.851 38.851 0 0 0 6.724-3.005 36.812 36.812 0 0 0 11.119-9.446 41.1 41.1 0 0 0 6.86-12.917 65.022 65.022 0 0 0 2.936-14.489 163.05 163.05 0 0 1-.172 3.72c-.138 1.233-.238 2.475-.408 3.708a53.287 53.287 0 0 1-1.623 7.295 40.196 40.196 0 0 1-6.811 13.304 36.258 36.258 0 0 1-11.537 9.499 35.846 35.846 0 0 1-14.278 4.085ZM341.802 441.56c1.13.436 2.26.856 3.414 1.203 1.138.383 2.29.725 3.455 1.008a47.66 47.66 0 0 0 7.037 1.27 32.303 32.303 0 0 0 7.101-.138 20.707 20.707 0 0 0 3.453-.867 23.212 23.212 0 0 0 3.326-1.38 18.074 18.074 0 0 1-6.637 3.003 25.708 25.708 0 0 1-7.336.378 34.009 34.009 0 0 1-7.158-1.531 32.943 32.943 0 0 1-6.655-2.946ZM337.696 420.618a114.534 114.534 0 0 0 3.301 3.162 70.75 70.75 0 0 0 3.435 2.954c1.16.963 2.383 1.841 3.625 2.699 1.242.862 2.546 1.623 3.874 2.409a19.308 19.308 0 0 1-4.28-1.743 25.634 25.634 0 0 1-3.847-2.588 26.367 26.367 0 0 1-6.108-6.893ZM397.922 462.64c1.123-.286 2.244-.556 3.351-.88a72.238 72.238 0 0 0 3.32-.94c2.195-.678 4.385-1.364 6.509-2.213a48.148 48.148 0 0 0 6.215-2.86 16.624 16.624 0 0 0 1.467-.875 12.259 12.259 0 0 0 1.41-.968 16.724 16.724 0 0 0 1.361-1.047c.415-.394.842-.782 1.278-1.168a18.807 18.807 0 0 1-5.118 4.716 33.227 33.227 0 0 1-6.253 3.134 46.959 46.959 0 0 1-6.672 2.022 44.818 44.818 0 0 1-6.868 1.078ZM315.795 319.466a46.12 46.12 0 0 1 4.866 5.857 47.088 47.088 0 0 1 3.95 6.541 33.432 33.432 0 0 1 2.663 7.185 18.845 18.845 0 0 1 .354 1.89l.155.947c.029.319.042.64.06.96a14.547 14.547 0 0 1 .01 1.915 55.65 55.65 0 0 1-.195 1.898 58.853 58.853 0 0 1-.07-1.896 14.271 14.271 0 0 0-.233-1.865l-.128-.928-.22-.913a18.177 18.177 0 0 0-.476-1.81 64.301 64.301 0 0 1-.58-1.78l-.687-1.743c-.214-.587-.485-1.152-.742-1.722-.26-.568-.507-1.143-.807-1.694a75.148 75.148 0 0 0-3.69-6.56 66.984 66.984 0 0 0-2.065-3.166c-.688-1.06-1.426-2.085-2.165-3.116ZM297.18 265.08a5.857 5.857 0 0 1 1.393-1.534 7.803 7.803 0 0 1 1.791-1.07 6.461 6.461 0 0 1 2.065-.466 4.078 4.078 0 0 1 2.051.444 14.7 14.7 0 0 0-1.942.328 16.447 16.447 0 0 0-1.792.618c-1.179.486-2.307 1.095-3.566 1.68Z"></path><path fill="#fd8b66" d="M305.5 195.28c.106-.137.166-.228.166-.228 1.772-4.441 1.308-7.376.434-9.194.16-.236 2.882-4.06 4.296.243 1.46 4.434-.09 18.182-4.897 9.179ZM314.457 187.245s3.284-4.192 4.441 1.092-1.503 17.306-4.742 6.714"></path><path fill="#fd8b66" d="M310.397 186.101s2.798-5.018 3.984.73-1.158 17.626-4.343 9.682M334.523 409.44s-9.307-5.84-6.387-8.122c0 0 1.143-.826 6.115 2.94l1.314 4.806Z"></path><path fill="#d04719" d="m334.464 409.992-.206-.13c-.72-.45-7.04-4.495-7.187-7.337a1.849 1.849 0 0 1 .757-1.6c.354-.258 1.84-.767 6.725 2.935l.135.103 1.481 5.415Zm-5.936-8.25a.55.55 0 0 0-.159.017.843.843 0 0 0-.299.715c.098 1.902 4.554 5.152 6.514 6.412l.377-.136-1.147-4.195c-3.401-2.555-4.843-2.812-5.286-2.812Z"></path><path fill="#fd8b66" d="M332.631 415.28s-4.44-1.597-1.064-4.107c2.351-1.747 5.81-3.74 8.638-2.555s.913 3.787-.41 3.924"></path><path fill="#fd8b66" d="M334.958 418.975s-4.973-.365-2.874-3.01 8.27-3.605 8.27-3.605 6.342-.299 2.087 3.308"></path><path fill="#fd8b66" d="M337.631 421.316s-6.064-.15-2.36-2.523 7.17-3.747 8.31-3.128 2.244 3.474-5.95 5.65ZM306.675 191.62s11.721 2.06 13.774 4.11c0 0 2.171 5.072-1.276 5.747s-5.017 4.175-5.017 4.175l-7.48-3.49-2.584-8.076Z"></path><path fill="#d04719" d="M316.715 199.78c-1.458 0-2.424-2.577-3.037-4.583l.956-.292c.99 3.236 1.821 3.956 2.162 3.864 1.261-.33 2.438-6.558 1.614-10.325-.295-1.347-.747-2.127-1.308-2.256-.805-.186-1.925.952-2.252 1.366l-.787-.618c.168-.214 1.682-2.08 3.26-1.723.98.224 1.674 1.239 2.063 3.017.789 3.603-.105 10.922-2.337 11.506a1.3 1.3 0 0 1-.334.044Z"></path><path fill="#d04719" d="M312.114 199.67c-1.35 0-2.233-2.204-2.54-2.97l.927-.373c.75 1.869 1.381 2.421 1.706 2.327 1.364-.41 2.582-7.37 1.684-11.721-.43-2.084-1.005-2.33-1.171-2.356-.559-.094-1.459 1.004-1.887 1.768l-.873-.487c.143-.256 1.433-2.503 2.912-2.27.939.145 1.592 1.173 1.999 3.143.847 4.106-.025 12.173-2.376 12.88a1.31 1.31 0 0 1-.38.058Z"></path><path fill="#d04719" d="M308.365 198.78c-1.565 0-2.85-2.407-3.307-3.265l-.153-.287.2-.256c.053-.068.093-.123.118-.158 1.368-3.454 1.515-6.475.426-8.74l-.124-.259.162-.238c.154-.227 1.554-2.203 3.12-1.994.896.126 1.591.92 2.065 2.362 1.05 3.193.71 11.594-1.881 12.702a1.58 1.58 0 0 1-.626.132Zm-2.276-3.462c.998 1.794 1.903 2.666 2.509 2.41 1.754-.75 2.38-8.262 1.323-11.47-.236-.721-.647-1.599-1.253-1.684-.694-.105-1.573.809-1.991 1.343.78 1.807 1.246 4.828-.546 9.32Z"></path><path fill="#ffb957" d="M477.995 345.335s-1.633 2.416-8.687-5.088l-.005-.002c-.652 1.812-2.061 3.19-2.943 7.326a24.83 24.83 0 0 0-.365 8.213c.518 4.085 1.68 4.473 2.008 7.3.432 3.721-1.336 5.155-4.745 12.958-2.854 6.531-4.28 9.797-4.015 13.14.503 6.34 5.316 10.27 4.745 10.768-.563.49-5.933-2.727-9.49-8.578-1.444-2.374-3.635-6.902-4.015-28.106-.164-9.108.166-12.42-2.19-16.972-.958-1.851-4.158-8.031-10.038-8.76-5.333-.662-9.585 3.567-10.768 4.745a19.452 19.452 0 0 0-3.287 4.406l-2.509 6.52c-.47 1.828-.647 3.035-.861 2.989-.07-.015-.111-.164-.133-.404l-3.613 9.393.83 17.126s5.535 6.622 10.6 7.648l4.654-5.475 3.08 20.76s42.522 13.87 55.663 5.658c0 0-.73-16.426 0-17.52.73-1.096-10.22-59.497-10.22-59.497Z"></path><path fill="#ca5303" d="m433.168 384.482 8.007-8.897-6.85 16.7-1.157-7.803z"></path><path fill="#fd8b66" d="m428.514 389.957-8.692 11.794s-1.966-14.566-1.907-19.442c0 0 5.808 6.896 10.599 7.648Z"></path><path fill="#3d9ba8" d="m481.69 333.883-3.695 11.452s-23.497 49.596-31.436 53.976-12.914-11.61-12.914-11.61l2.602 17.541s-4.562 15.513-5.292 22.448 0 15.695-1.643 18.068c-.888 1.283-2.598 5.872-3.982 9.819a3.064 3.064 0 0 0 .15.492c.82 1.916 2.099 3.559 2.281 12.867a39.567 39.567 0 0 0 .754 6.005c114.907-88.712 53.176-141.058 53.176-141.058Z"></path><path fill="#490000" d="M476.216 266.905a15.085 15.085 0 0 1-1.643 8.76c-1.067 1.931-2.02 2.076-8.213 6.752-3.941 2.977-5.932 4.497-6.935 6.023-.738 1.123-3.344 5.45-2.19 10.038.688 2.733 1.95 2.54 4.563 7.665 1.634 3.207 2.451 4.81 2.372 6.752-.108 2.667-1.487 3.137-2.372 7.483-.468 2.295-.736 3.612-.183 5.11.815 2.205 2.493 2.325 4.563 4.563.274.296 3.244 3.585 3.467 7.665.203 3.69-2.058 4.094-3.285 9.855a24.83 24.83 0 0 0-.365 8.213c.518 4.085 1.68 4.473 2.008 7.3.432 3.72-1.336 5.155-4.745 12.958-2.854 6.531-4.28 9.797-4.015 13.14.503 6.34 5.316 10.27 4.745 10.767-.563.49-5.933-2.726-9.49-8.577-1.444-2.374-3.635-6.902-4.015-28.106-.164-9.108.166-12.42-2.19-16.972-.958-1.851-4.158-8.031-10.038-8.76-5.333-.662-9.585 3.567-10.768 4.744-5.803 5.774-6.102 14.035-6.657 13.916-.524-.112.461-7.302.817-9.9.907-6.625 1.29-7.32.913-9.49-.758-4.354-2.924-5.147-2.373-7.848.572-2.807 3.16-3.172 5.475-6.205 2.695-3.531 2.037-6.769 2.738-11.316 1.195-7.752 4.5-7.367 10.402-20.075 4.663-10.039 2.945-11.021 6.935-16.608a35.29 35.29 0 0 1 13.323-11.315c3.833-1.795 3.733-.574 12.958-3.102 8.63-2.366 9.706-3.611 13.505-3.285a18.571 18.571 0 0 1 11.315 5.475c.958 1.005 5.627 5.811 4.928 11.497-.34 2.773-1.546 2.416-3.103 7.3a38.61 38.61 0 0 0-1.642 9.673c-.088 1.39-.02 1.271 0 6.388.035 8.866-.168 9.06.182 11.132.768 4.538 1.926 4.7 1.643 7.3-.355 3.265-2.257 3.716-4.745 8.213-1.145 2.07-3.855 6.966-3.285 12.775a24.767 24.767 0 0 0 2.555 8.03c1.758 3.88 2.69 4.14 3.65 6.753 1.848 5.034.903 10.916-.365 11.133-1.488.254-1.364-7.634-7.848-16.608-1.855-2.567-6.374-8.162-7.117-12.228a42.015 42.015 0 0 1-.548-4.927c-.071-1.61 0-2.92 0-2.92s6.04-3.126 9.308-6.57c1.566-1.651 1.978-5.26 2.737-12.41.19-1.789.61-6.114.73-14.236.1-6.71.15-10.064-.182-11.315-2.633-9.936-17.52-14.6-17.52-14.6Z"></path><path fill="#376f92" d="M489.903 352.59a197.215 197.215 0 0 1-6.875 21.062c-1.314 3.456-2.757 6.862-4.235 10.254a235.295 235.295 0 0 1-4.778 10.023 142.125 142.125 0 0 1-11.545 18.99 66.247 66.247 0 0 1-15.546 15.775 63.662 63.662 0 0 0 7.694-7.877 100.222 100.222 0 0 0 6.575-8.795 186.16 186.16 0 0 0 11.043-19.005c3.361-6.524 6.425-13.206 9.353-19.953a482.864 482.864 0 0 0 4.26-10.185c1.42-3.4 2.73-6.842 4.054-10.29ZM491.946 373.669a19.146 19.146 0 0 1-.467 6.002 25.498 25.498 0 0 1-1.991 5.714 27.732 27.732 0 0 1-1.474 2.657 25.25 25.25 0 0 1-1.815 2.436 19.056 19.056 0 0 1-4.508 3.996c1.107-1.693 2.265-3.237 3.243-4.91a52.948 52.948 0 0 0 2.754-5.05 81.494 81.494 0 0 0 4.258-10.845ZM486.818 345.746a82.514 82.514 0 0 1-2.816 9.447c-1.09 3.099-2.338 6.138-3.69 9.135a89.641 89.641 0 0 1-4.555 8.759 44.532 44.532 0 0 1-5.838 7.973c1.611-2.875 3.043-5.787 4.464-8.712q2.11-4.395 4.11-8.85l4.069-8.891c1.364-2.968 2.754-5.927 4.256-8.861Z"></path><path fill="#133852" d="M456.962 377.46a20.54 20.54 0 0 0 1.036-10.84c-.732-3.542-2.291-7.004-3.479-10.574l-.894-2.677a18.767 18.767 0 0 1-.794-2.817 10.115 10.115 0 0 1 .933-5.762 19.471 19.471 0 0 0 1.832-5.26 17.6 17.6 0 0 0 .027-5.508 30.283 30.283 0 0 0-1.388-5.34 16.391 16.391 0 0 0-2.516-4.73 25.746 25.746 0 0 1-1.657-2.416 14.185 14.185 0 0 1-1.215-2.783 18.315 18.315 0 0 1-.842-5.893 24.939 24.939 0 0 1 .884-5.8 42.975 42.975 0 0 1 1.794-5.472 25.813 25.813 0 0 1 2.782-5.073 19.808 19.808 0 0 1 3.987-4.116l.138.146a24.838 24.838 0 0 0-5.43 9.588 55.123 55.123 0 0 0-1.385 5.374 25.526 25.526 0 0 0-.637 5.38 18.51 18.51 0 0 0 .703 5.262 12.147 12.147 0 0 0 .954 2.425 24.103 24.103 0 0 0 1.462 2.295 16.345 16.345 0 0 1 2.494 5.345 26.236 26.236 0 0 1 .961 5.7 21.286 21.286 0 0 1-.45 5.748 27.179 27.179 0 0 1-1.9 5.382 8.736 8.736 0 0 0-.667 2.63 8.368 8.368 0 0 0 .226 2.65c.502 1.66 1.451 3.39 2.154 5.13.724 1.743 1.421 3.497 2.024 5.306a29.68 29.68 0 0 1 1.429 5.611 16.392 16.392 0 0 1-.26 5.84 18.884 18.884 0 0 1-2.124 5.332ZM429.504 313.624a14.301 14.301 0 0 0 6.195-5.882 12.979 12.979 0 0 0 1.147-4.042c.176-1.446.389-2.953.497-4.372.054-.722.082-1.432.077-2.189a9.83 9.83 0 0 1 .219-2.38 13.174 13.174 0 0 1 1.935-4.244 18.377 18.377 0 0 1 3.037-3.442 19.369 19.369 0 0 1 3.748-2.698 18.83 18.83 0 0 1 4.343-1.698 41.528 41.528 0 0 1 4.502-.77 20.09 20.09 0 0 0 7.957-3.003c4.862-3.12 8.879-7.654 12.974-12.059l.161.119a57.082 57.082 0 0 1-5.204 7.458 32.807 32.807 0 0 1-6.778 6.277 19.309 19.309 0 0 1-4.25 2.09 21.765 21.765 0 0 1-4.607.983c-1.565.17-2.984.229-4.427.476a19.933 19.933 0 0 0-4.203 1.117 14.245 14.245 0 0 0-6.707 5.5 9.694 9.694 0 0 0-1.383 4.077 8.84 8.84 0 0 0 .08 2.115 20.635 20.635 0 0 1 .19 2.318 20.266 20.266 0 0 1-.118 2.323c-.078.749-.154 1.507-.293 2.274a12.552 12.552 0 0 1-1.538 4.516 12.11 12.11 0 0 1-7.481 5.322Z"></path><path fill="#133852" d="M447.393 284.492a8.052 8.052 0 0 1-.069-4.817 10.466 10.466 0 0 1 .972-2.27 6.756 6.756 0 0 1 1.627-1.995 17.18 17.18 0 0 1 4.226-2.482 33.197 33.197 0 0 1 4.498-1.59 31.903 31.903 0 0 1 4.707-.883 27.747 27.747 0 0 0 4.614-.593 17.97 17.97 0 0 0 2.183-.75 13.344 13.344 0 0 0 2.028-1.089c1.343-.801 2.65-1.67 3.982-2.494 1.324-.838 2.639-1.693 3.978-2.503 1.345-.81 2.657-1.625 4.134-2.356a9.79 9.79 0 0 1 2.443-.862 7.209 7.209 0 0 1 2.707.007 8.958 8.958 0 0 1 4.594 2.486 9.24 9.24 0 0 1 2.5 4.542 10.115 10.115 0 0 1-.242 5.06 14.97 14.97 0 0 1-.977 2.257 20.624 20.624 0 0 0-.908 2.097 13.89 13.89 0 0 0-.6 2.19 14.136 14.136 0 0 0-.18 2.3l-.199.024a10.852 10.852 0 0 1 .006-4.792c.326-1.57 1.029-3.126 1.327-4.45a9.123 9.123 0 0 0-.11-4.225 7.608 7.608 0 0 0-2.113-3.482 7.513 7.513 0 0 0-3.516-1.965 5.88 5.88 0 0 0-3.946.522c-1.353.599-2.742 1.368-4.143 2.052l-4.22 2.053c-1.396.704-2.81 1.375-4.18 2.129a19.11 19.11 0 0 1-2.133 1.062c-.738.282-1.469.592-2.236.81-1.524.49-3.121.715-4.609 1.068a35.062 35.062 0 0 0-4.389 1.371c-2.858 1.08-5.883 2.043-8.254 3.694a6.088 6.088 0 0 0-1.46 1.5 12.118 12.118 0 0 0-1.11 1.921 8.737 8.737 0 0 0-.655 2.125 10.568 10.568 0 0 0-.08 2.291Z"></path><path fill="#fd8b66" d="M487.856 412.562s-1.911 7.235 0 13.12c0 0-2.673 1.664-11.172 2.52 0 0 8.29-10.692 10.299-15.64Z"></path><path fill="#581d58" d="M434.767 383.6c-8.48-5.269-17.274-17.888-17.682-18.417l.965-2.28c.097.126 10.312 13.137 18.323 18.114Z"></path><path fill="#d04719" d="M481.143 326.036s-11.133.73-17.246-4.928c0 0 3.721 8.27 17.419 10.066Z"></path><path fill="#490000" d="M479.596 312.604c-3.963 0-6.903-2.357-7.798-4.205-.509-1.048-.182-1.617.058-1.862.295-.301.87-.558 1.934-.073a12.347 12.347 0 0 0 6.233.854.75.75 0 0 1 .233 1.482 13.709 13.709 0 0 1-7.058-.957 4.92 4.92 0 0 0 1 1.221 8.037 8.037 0 0 0 6.318 1.99.75.75 0 1 1 .16 1.492 10.206 10.206 0 0 1-1.08.058Z"></path><path fill="#d04719" d="M479.046 288.677a125.64 125.64 0 0 1 4.067 8.747l.945 2.256a9.717 9.717 0 0 1 .386 1.216 3.488 3.488 0 0 1 .02 1.64 2.381 2.381 0 0 1-1.219 1.477 2.75 2.75 0 0 1-1.6.218 3.393 3.393 0 0 1-2.295-1.384l.119-.161a4.611 4.611 0 0 0 2.175.138 1.454 1.454 0 0 0 .706-.333.512.512 0 0 0 .165-.404 11.185 11.185 0 0 0-.352-1.834 35.72 35.72 0 0 0-.56-2.3c-.43-1.532-.896-3.063-1.37-4.59l-1.373-4.612ZM516.407 291.087l-1.372 4.611c-.475 1.528-.94 3.059-1.37 4.59a35.664 35.664 0 0 0-.56 2.3 11.178 11.178 0 0 0-.352 1.835.512.512 0 0 0 .164.404 1.455 1.455 0 0 0 .707.333 4.611 4.611 0 0 0 2.175-.138l.118.16a3.393 3.393 0 0 1-2.294 1.385 2.75 2.75 0 0 1-1.6-.218 2.381 2.381 0 0 1-1.219-1.477 3.487 3.487 0 0 1 .02-1.64 9.71 9.71 0 0 1 .386-1.216l.945-2.256a125.632 125.632 0 0 1 4.067-8.748Z"></path><path fill="#490000" d="M463.896 287.73a.75.75 0 0 1-.557-1.252c.148-.165 3.709-4.005 10.412-1.382a.75.75 0 1 1-.546 1.396c-5.746-2.248-8.722.958-8.75.99a.749.749 0 0 1-.559.248ZM491.91 287.091a.746.746 0 0 1-.506-.197c-2.832-2.595-6.54-.322-6.578-.298a.75.75 0 1 1-.796-1.272c1.619-1.014 5.456-2.223 8.387.465a.75.75 0 0 1-.506 1.302Z"></path><path fill="#d04719" d="M478.406 286.203a1.597 1.597 0 0 0 0-3.191 1.597 1.597 0 0 0 0 3.191Z"></path><path fill="#490000" d="M465.322 294.678a2.765 2.765 0 0 1-.853-.135 2.494 2.494 0 0 1-.931-.588.75.75 0 1 1 1.06-1.06 1.003 1.003 0 0 0 .37.233 1.243 1.243 0 0 0 .506.038c.143-.026.206-.085.45-.419a3.642 3.642 0 0 1 .901-.933 4.354 4.354 0 0 1 3.822-.272 5.517 5.517 0 0 1 1.823.95.75.75 0 1 1-.927 1.18 4.013 4.013 0 0 0-1.327-.693 2.911 2.911 0 0 0-2.541.071 2.261 2.261 0 0 0-.54.582 2.15 2.15 0 0 1-1.394 1.01 2.347 2.347 0 0 1-.42.036ZM484.676 294.195a.75.75 0 0 1-.593-1.207 5.533 5.533 0 0 1 1.53-1.37 4.35 4.35 0 0 1 3.772-.681 3.633 3.633 0 0 1 1.104.682c.32.263.394.31.54.294a1.224 1.224 0 0 0 .482-.163.98.98 0 0 0 .3-.317.75.75 0 1 1 1.288.768 2.504 2.504 0 0 1-.757.798 2.716 2.716 0 0 1-1.209.41 2.14 2.14 0 0 1-1.599-.634 2.277 2.277 0 0 0-.667-.43 2.915 2.915 0 0 0-2.48.558 4.027 4.027 0 0 0-1.116 1 .748.748 0 0 1-.595.292ZM504.533 294.573a2.736 2.736 0 0 1-1.126-.258 2.494 2.494 0 0 1-.853-.698.75.75 0 1 1 1.184-.921.993.993 0 0 0 .337.276 1.253 1.253 0 0 0 .498.1c.145-.008.215-.059.498-.36a3.636 3.636 0 0 1 1.01-.815 4.346 4.346 0 0 1 3.827.2 5.501 5.501 0 0 1 1.691 1.167.75.75 0 1 1-1.064 1.057 4.023 4.023 0 0 0-1.232-.851 2.912 2.912 0 0 0-2.531-.242 2.267 2.267 0 0 0-.608.512 2.155 2.155 0 0 1-1.507.83 2.671 2.671 0 0 1-.124.003ZM530.124 296.47a2.31 2.31 0 0 1-.115-.002 2.153 2.153 0 0 1-1.51-.826 2.26 2.26 0 0 0-.61-.51 2.906 2.906 0 0 0-2.53.25 4.031 4.031 0 0 0-1.23.854.75.75 0 0 1-1.067-1.053 5.52 5.52 0 0 1 1.688-1.172 4.343 4.343 0 0 1 3.827-.212 3.64 3.64 0 0 1 1.012.812c.284.3.354.35.5.359a1.085 1.085 0 0 0 .504-.105.993.993 0 0 0 .33-.275.75.75 0 0 1 1.185.919 2.503 2.503 0 0 1-.85.7 2.747 2.747 0 0 1-1.134.262Z"></path><path fill="#d04719" d="M530.967 322.614c-10.608 5.133-18.904 3.287-18.904 3.287l.002.006c3.367 2.455 1.518 4.235 1.518 4.235l.004.017c13.118 1.481 17.38-7.545 17.38-7.545Z"></path><path fill="#e6560f" d="M567.923 354.938c-5.2-11.613-25.276-16.127-25.276-16.127-7.483 5.11-18.433 19.163-18.433 19.163-15.148.182-11.863-20.44-11.863-20.44s-13.094.501-16.288 1.094c-3.18.59-3.604 4.098-3.608 4.13.294.698.604 1.387.916 2.075 1.758 3.88 2.69 4.14 3.65 6.753 1.608 4.382 1.1 9.402.106 10.774 2.131 10.611 1.644 24.044-5.148 40.048l-.068 8.492 53.838 5.678 7.118-24.548 4.928 14.093 18.615-17.489s-3.285-22.083-8.487-33.696Z"></path><path d="M512.063 400.499a.5.5 0 0 1-.447-.725c.956-1.906 23.525-46.763 34.742-52.017a.5.5 0 0 1 .424.906c-10.905 5.108-34.039 51.096-34.271 51.56a.5.5 0 0 1-.448.276ZM500.033 434.121a.5.5 0 0 1-.32-.885c.332-.275 33.278-27.996 42.866-69.944a.5.5 0 0 1 .974.223c-9.664 42.287-42.867 70.214-43.201 70.49a.497.497 0 0 1-.32.116Z"></path><path d="M501.837 421.376a.5.5 0 0 1-.379-.827l16.538-19.125a.5.5 0 0 1 .756.654l-16.537 19.125a.5.5 0 0 1-.378.173ZM500.032 402.251a.5.5 0 0 1-.466-.681c.165-.426 4.12-10.477 10.247-14.893a.5.5 0 0 1 .585.812c-5.89 4.244-9.86 14.342-9.9 14.443a.5.5 0 0 1-.466.319Z"></path><path fill="#fd8b66" d="m544.374 416.433-1.308 5.964s-4.518 3.819-17.548 4.647l8.642-11.772Z"></path><path fill="#e6560f" d="M562.265 457.164c-5.018-11.498-19.199-34.767-19.199-34.767s-4.52 3.819-17.548 4.647l.096-.131c-9.764 11.852-21.332 21.068-34.548 23.708l7.185 55.819h70.22s-1.187-37.778-6.206-49.276Z"></path><path fill="#c1440e" d="m520.451 428.796 4.437 59.007-7.422-58.707 2.985-.3zM523.734 426.346l10.585 39.316-13.452-38.43 2.867-.886zM517.03 431.919l-5.932 61.931 2.94-62.144 2.992.213zM552.867 392.03l-2.367-7.362-3.224 26.645 5.591-19.283z"></path><path d="M568.47 388.722a1 1 0 0 1-.882-1.47l3.012-5.658a1 1 0 1 1 1.765.94l-3.011 5.657a1 1 0 0 1-.884.53ZM559.374 391.733a1 1 0 0 1-.94-.658l-2.196-6.021a1 1 0 0 1 1.88-.686l2.195 6.022a1.001 1.001 0 0 1-.94 1.343ZM544.164 415.209a1 1 0 0 1-.94-.658l-2.195-6.022a1 1 0 1 1 1.879-.684l2.195 6.021a1.001 1.001 0 0 1-.94 1.343ZM500.68 380.377a1.012 1.012 0 0 1-.245-.03 1 1 0 0 1-.726-1.215l1.567-6.214a1 1 0 1 1 1.94.49l-1.567 6.214a1 1 0 0 1-.969.755ZM512.773 366.999a1 1 0 0 1-.81-1.586l3.759-5.192a1 1 0 0 1 1.62 1.173l-3.758 5.191a.999.999 0 0 1-.811.414ZM506.398 366.354l-.037-.001a1 1 0 0 1-.963-1.036l.235-6.405a1 1 0 0 1 2 .073l-.236 6.405a1 1 0 0 1-.999.964ZM502.368 352.58a1 1 0 0 1-.82-1.57l3.656-5.264a1 1 0 0 1 1.642 1.14l-3.656 5.265a.998.998 0 0 1-.822.43ZM495.65 344.17a1 1 0 0 1-.176-1.983l6.307-1.14a1 1 0 1 1 .355 1.969l-6.307 1.138a.973.973 0 0 1-.179.016ZM560.377 373.869a1 1 0 0 1-.882-1.47l3.011-5.657a1 1 0 1 1 1.766.94l-3.011 5.656a1 1 0 0 1-.884.53Z"></path><path fill="#fd8b66" d="M558.866 405.117s3.582 19.47 14.67 18.512 15.831-5.562 21.854-15.442 21.9-38.147 21.9-38.147l6.662-4.766s4.015-3.741 4.289-6.479c0 0 4.745-.73 1.186-4.563 0 0 3.741-3.285-.913-5.018 0 0 14.6-7.757 13.323-10.95s-16.334 6.935-16.334 6.935 8.76-14.053 5.293-15.057-14.236 18.342-14.236 18.342-6.113 1.55-9.672 9.398-25.14 27.357-28.973 36.834l-2.47-5.176Z"></path><path fill="#d04719" d="M625.275 359.044c-1.31 0-6.51-1.787-7.195-4.91l.976-.214c.538 2.448 5.078 4.083 6.18 4.123-.06-.797-1.934-3.876-3.194-5.946-2.586-4.25-5.172-3.202-5.28-3.156l-.407-.913c.14-.063 3.473-1.493 6.541 3.55 2.933 4.818 3.664 6.236 3.218 7.03a.895.895 0 0 1-.84.436Z"></path><path fill="#d04719" d="M621.662 361.55a3.438 3.438 0 0 1-.604-.05 1.699 1.699 0 0 1-1.467-1.019c-.327-.958.599-2.054.788-2.264l.743.67c-.307.34-.69.96-.584 1.27.073.216.468.318.697.359 1.725.314 5.47-1.454 6.766-2.16l.479.878c-.187.102-4.28 2.315-6.818 2.315Z"></path><path fill="#d04719" d="M619.688 359.21a3.057 3.057 0 0 1-2.948-1.974c-.354-.835.208-1.818 1.716-3.008l.62.785c-1.211.956-1.526 1.572-1.416 1.83a2.265 2.265 0 0 0 2.94 1.232l.147.467.376.344-.102.108-.13.038a4.295 4.295 0 0 1-1.203.178ZM622.895 352.563l-.487-.874c2.885-1.604 5.876-2.92 5.906-2.934l.401.916c-.029.013-2.978 1.31-5.82 2.892ZM624.734 355.554l4.51-1.786.368.93-4.51 1.786zM577.915 394.716a14.67 14.67 0 0 0-1.505 11.256s-5.077-5.351-.965-16.432Z"></path><path fill="#490000" d="M511.165 286.71a.748.748 0 0 1-.45-.15 4.537 4.537 0 0 0-5.391-.004.75.75 0 0 1-.913-1.19 6.013 6.013 0 0 1 7.203-.007.75.75 0 0 1-.45 1.351ZM529.63 289.464a.748.748 0 0 1-.449-.15 4.538 4.538 0 0 0-5.392-.004.75.75 0 0 1-.913-1.19 6.012 6.012 0 0 1 7.204-.007.75.75 0 0 1-.45 1.35Z"></path><path fill="#d04719" d="M514.541 313.34a6.236 6.236 0 0 0 .958-1.561 2.023 2.023 0 0 1 2.419-1.05s-.183-1.961 1.642-2.144a5.58 5.58 0 0 0 2.464-.639s-1.369 6.817-7.483 5.393ZM516.868 287.482c1.468 0 1.927-3.422.456-3.422-1.467 0-1.926 3.422-.456 3.422Z"></path><path fill="#133852" d="M272.525 505.44H616.56v2H272.525z"></path><path fill="#376f92" d="M362.042 197.11h-5.32c0-4.312-4.073-5.89-4.114-5.905l1.868-4.98c.309.116 7.566 2.93 7.566 10.885Z"></path><path fill="#ffb957" d="M211.134 346.335h-5.318c0-4.312-4.073-5.889-4.115-5.904l1.868-4.98c.308.115 7.565 2.928 7.565 10.884ZM661.543 293.715h-5.32c0-4.232-3.965-5.846-4.135-5.914l1.889-4.971c.308.115 7.566 2.928 7.566 10.885Z"></path><path fill="#e6560f" d="m225.33 277.638-5.128-1.41c.085-.312 2.157-7.668 8.137-8.696l.902 5.242c-2.18.375-3.59 3.721-3.91 4.864ZM340.643 233.36a12.563 12.563 0 0 1-7.35-8.997l5.242-.9a7.175 7.175 0 0 0 4.153 4.988ZM345.214 107.314c-2.382-3.288-5.344-2.276-5.914-2.039l-2.145-4.867a10.188 10.188 0 0 1 12.367 3.787Z"></path><path fill="#ffb957" d="m385.966 124.28-4.926-2.006c.533-1.312 3.433-7.804 8.246-6.906l-.98 5.228a.484.484 0 0 0 .217-.005c-.612.212-1.88 2.04-2.557 3.69Z"></path><path fill="#e6560f" d="m433.677 113.113-5.08-1.576c.479-1.542 3.147-9.278 8.705-10.136l.811 5.256c-1.645.254-3.667 3.979-4.436 6.456Z"></path><path fill="#376f92" d="m495.354 246.365-.681-5.276.34 2.638-.342-2.637c3.493-.458 13.353-2.755 16.977-7.824l4.326 3.094c-5.718 7.997-20.014 9.926-20.62 10.005ZM253.355 312.962l-.682-5.275c3.496-.458 13.352-2.756 16.976-7.823l4.326 3.093c-5.718 7.997-20.015 9.927-20.62 10.005Zm-.34-2.637-.344-2.638h.002Z"></path><path fill="#ffb957" d="M531.752 165.247c-1.398-3.847-6.706-3.065-6.932-3.03l-.861-5.247c3.408-.57 10.463.053 12.792 6.459Z"></path><path fill="#e6560f" d="m549.409 218.415-4.764-2.365c.872-1.76 4.06-7.501 8.47-7.501v5.318c-.774.12-2.62 2.374-3.706 4.548Z"></path><path fill="#376f92" d="M539.162 128.551a10.593 10.593 0 0 1-9.796-7.07l5.026-1.741-2.513.87 2.504-.893a5.26 5.26 0 0 0 5.519 3.471l.615 5.283a11.775 11.775 0 0 1-1.355.08Z"></path><path fill="#ffb957" d="M604.098 160.676c-.906-4.038-7.58-3.235-7.645-3.227l-.7-5.273c3.994-.538 11.957.306 13.535 7.335Z"></path><path fill="#e6560f" d="m647.452 197.345-1.778-5.013c1.247-.448 4.917-2.259 5.407-4.608l5.207 1.086c-1.185 5.682-8.056 8.26-8.836 8.535ZM416.153 291.851l-5.074-1.595c.258-.826 2.698-8.1 8.696-8.836l.647 5.28c-2.062.252-3.767 3.58-4.27 5.151Z"></path><path fill="#ffb957" d="M430.78 153.053c-7.439-6.731-24.322-7.702-24.491-7.712l.056-1.061c.709.037 17.432 1.002 25.149 7.983ZM444.577 167.91c-20.734-10.903-51.31-2.24-51.617-2.149l-.297-1.022c.311-.09 31.295-8.873 52.409 2.23Z"></path><path fill="#376f92" d="M450.879 168.768c-16.622-13.406-44.268-13.018-44.552-13.023l-.02-1.064c.282.002 28.311-.392 45.239 13.258Z"></path><path fill="#e6560f" d="M441.485 172.114c-3.855-1.928-18.044-1.773-18.189-1.77l-.012-1.063c.594-.007 14.593-.16 18.677 1.881Z"></path><path fill="#ffb957" d="m396.06 180.363-.291-1.024c.335-.097 33.8-9.453 55.604-2.55l-.322 1.013c-21.49-6.81-54.66 2.466-54.991 2.56Z"></path><path fill="#376f92" d="m399.868 189.048-.607-.874a57.76 57.76 0 0 1 29.782-8.866c.336 0 .671.004 1.01.01l-.022 1.065c-16.986-.35-30.032 8.575-30.163 8.665Z"></path><path fill="#ffb957" d="m405.745 197.232-.682-.816c.187-.156 18.786-15.457 39.401-15.457l.365.002-.01 1.064-.356-.002c-20.223 0-38.535 15.056-38.718 15.21Z"></path><path fill="#e6560f" d="m405.78 203.77-.752-.753c.402-.402 9.929-9.793 14.815-9.645l-.041 1.064a2.34 2.34 0 0 0-.122-.003c-4.508 0-13.806 9.242-13.9 9.336Z"></path><path fill="#376f92" d="m414.47 208.714-.976-.422c.065-.15 6.716-15.093 28.013-24.553l.432.972c-20.893 9.281-27.405 23.858-27.468 24.003Z"></path><path fill="#e6560f" d="M452.2 165.675c-4.236-8.294-14.585-12.481-14.689-12.523l.393-.989c.44.175 10.821 4.372 15.243 13.028Z"></path><path fill="#376f92" d="M443.173 151.88c-5.277-7.103-15.44-11.832-15.543-11.88l.445-.965c.426.196 10.51 4.886 15.952 12.211Z"></path><path fill="#ffb957" d="M453.626 159.205c-6.622-20.939-18.129-30.864-18.244-30.961l.688-.813c.117.1 11.848 10.2 18.57 31.454Z"></path><path fill="#e6560f" d="m447.053 123.401 1.02-.3 6.57 22.288-1.02.301z"></path><path fill="#ffb957" d="M457.068 134.395h1.064v24.65h-1.064z"></path><path fill="#376f92" d="m461.96 145.617-1.053-.154c.106-.722 2.65-17.76 8.894-24.555l.783.718c-6.022 6.555-8.6 23.817-8.624 23.99Z"></path><path fill="#ffb957" d="m461.952 157.52-1.037-.234c.05-.22 5.15-22.102 20.305-31.842l.576.895c-14.794 9.508-19.796 30.965-19.844 31.181Z"></path><path fill="#e6560f" d="m481.152 131.634 9.861-8.754.707.796-9.861 8.754z"></path><path fill="#376f92" d="m469.927 152.918-.927-.521c.301-.535 7.45-13.132 14.252-16.992l.526.925c-6.546 3.715-13.779 16.46-13.851 16.588Z"></path><path fill="#ffb957" d="m473.695 153.921-.8-.702c.118-.134 11.906-13.478 25.174-19.838l.46.96c-13.068 6.263-24.717 19.447-24.834 19.58Z"></path><path fill="#e6560f" d="m463.107 168.707-.794-.708c.136-.153 13.9-15.352 39.654-23.694l.328 1.011c-25.465 8.249-39.054 23.24-39.188 23.391ZM449.44 192.068l4.198-10.769.991.387-4.199 10.768z"></path><path fill="#ffb957" d="m411.541 226.53-.958-.464c.14-.288 14.131-29 30.336-37.921l.513.932c-15.906 8.757-29.753 37.166-29.89 37.453Z"></path><path fill="#376f92" d="m428.365 208.149 12.961-14.6.796.706-12.961 14.6z"></path><path fill="#e6560f" d="m425.657 227.237 9.111-16.98.937.502-9.111 16.98z"></path><path fill="#ffb957" d="m437.257 208.228 7.111-11.683.908.553-7.111 11.683z"></path><path fill="#e6560f" d="m442.247 223.373-1.049-.173c.128-.773 3.165-18.982 6.85-23.956l.854.634c-3.532 4.768-6.623 23.309-6.655 23.495Z"></path><path fill="#ffb957" d="M449.45 233.907c-4.95-11 .996-31.965 1.251-32.852l1.022.295c-.06.213-6.093 21.475-1.302 32.121Z"></path><path fill="#376f92" d="M460.052 233.942c-8.93-16.585-3.034-46.866-2.973-47.17l1.043.208c-.06.3-5.881 30.21 2.867 46.457Z"></path><path fill="#ffb957" d="M525.888 201.617c-24.042-19.378-61.366-21.219-61.74-21.234l.045-1.064c.378.016 38.052 1.875 62.362 21.469Z"></path><path fill="#376f92" d="m464.467 173.174-.593-.883c.183-.123 18.703-12.312 44.853-11.04l-.052 1.061c-25.76-1.264-44.027 10.74-44.208 10.862Z"></path><path fill="#e6560f" d="M518.06 176.995c-11.215-8.189-31.398-7.574-31.606-7.563l-.037-1.063c.838-.03 20.758-.64 32.27 7.768Z"></path><path fill="#ffb957" d="M490.492 177.08c-14.297-3.935-28.798-.76-28.942-.725l-.233-1.039c.146-.032 14.897-3.265 29.457.737ZM500.486 210.668c-17.05-16.2-33.572-21.498-33.737-21.549l.318-1.016c.167.053 16.924 5.427 34.153 21.794Z"></path><path fill="#e6560f" d="m462.33 187.883.765-.738 9.674 10.037-.766.739z"></path><path fill="#ffb957" d="M465.372 210.81c-4.588-6.791-5.352-15.932-5.382-16.317l1.06-.083c.007.091.776 9.25 5.203 15.803Z"></path><path fill="#376f92" d="m463.723 197.841.894-.577 8.213 12.73-.894.577z"></path><path fill="#ffb957" d="m472.906 205.763.78-.723 16.607 17.885-.779.723z"></path><path fill="#376f92" d="M484.787 190.907c-3.84-3.752-15.267-5.04-15.382-5.052l.116-1.057c.484.053 11.91 1.342 16.01 5.348Z"></path><path fill="#e6560f" d="M504.045 197.937c-5.788-5.52-16.425-9.885-16.532-9.929l.4-.984c.444.18 10.93 4.482 16.866 10.145Z"></path><path fill="#ffb957" d="m482.7 160.592-.56-.904c.536-.332 13.219-8.12 21.364-6.642l-.191 1.047c-7.735-1.41-20.483 6.42-20.612 6.5Z"></path><path fill="#376f92" d="M509.212 185.811c-9.125-4.115-20.53-5.43-20.645-5.442l.118-1.057c.116.013 11.688 1.346 20.965 5.53Z"></path><path fill="#e6560f" d="M352.591 172.62a1.145 1.145 0 0 0 0-2.288 1.145 1.145 0 0 0 0 2.288ZM364.368 134.344a1.145 1.145 0 0 0 0-2.288 1.145 1.145 0 0 0 0 2.288ZM334.101 126.712l.667-.37 5.79 10.402-.667.371zM323.02 143.374l.257-.718 11.777 4.22-.258.718z"></path><path fill="#ffb957" d="m324.739 160.64 9.517-5.01.356.674-9.518 5.011z"></path><path fill="#e6560f" d="m331.032 163.937 7.458-7.067.524.553-7.458 7.067z"></path><path fill="#376f92" d="m331.811 135.14.536-.543 7.263 7.165-.536.543z"></path><path fill="#ffb957" d="M345.732 127.487h.763v11.308h-.763zM346.125 159.503h.763v11.287h-.763z"></path><path fill="#e6560f" d="m349.096 137.87 3.14-7.951.709.28-3.14 7.95z"></path><path fill="#ffb957" d="M326.583 149.307h9.716v.763h-9.716z"></path><path fill="#376f92" d="m331.159 154.042 7.458-2.829.27.713-7.458 2.829z"></path><path fill="#e6560f" d="m338.52 154.096 2.945-2.257.464.606-2.944 2.257z"></path><path fill="#ffb957" d="m332.878 142.369.364-.67 5.693 3.09-.364.671zM341.346 135.508l.703-.297 3.238 7.655-.703.297z"></path><path fill="#e6560f" d="m341.367 141.732.661-.38 2.65 4.613-.661.38zM347.614 157.257l.73-.22 2.257 7.458-.73.221z"></path><path fill="#376f92" d="m340.352 170.68 2.597-8.539.73.222-2.597 8.54z"></path><path fill="#e6560f" d="m353.722 141.248 5.596-4.612.485.588-5.596 4.612z"></path><path fill="#376f92" d="m356.25 143.508 8.44-4.174.338.684-8.439 4.174zM356.645 152.505l.235-.725 11.826 3.827-.235.725z"></path><path fill="#ffb957" d="m352.245 159.959.692-.323 4.809 10.305-.691.323z"></path><path fill="#376f92" d="m353.094 156.226.564-.512 6.772 7.458-.564.513z"></path><path fill="#e6560f" d="m357.368 149.308 6.969-.587.064.759-6.969.587z"></path><path fill="#ffb957" d="m349.908 142.524 2.356-3.925.655.392-2.356 3.926z"></path><path fill="#376f92" d="m347.01 146.105.589-4.391.756.101-.589 4.392z"></path><path fill="#ffb957" d="m339.577 162.106 1.767-4.318.707.289-1.768 4.318zM337.814 147.976l.308-.698 3.337 1.472-.308.698zM343.97 158.413l.59-3.778.754.117-.59 3.778zM349.994 146.94l2.748-2.257.484.59-2.747 2.257zM354.896 146.866l3.975-1.078.2.735-3.975 1.079z"></path><path fill="#e6560f" d="m353.15 153.577.455-.613 4.023 2.994-.455.612z"></path><path fill="#376f92" d="m348.04 153.173.663-.377 1.864 3.279-.663.377zM350.829 150.018l.384-.659 2.356 1.374-.385.66zM360.05 159.273a1.145 1.145 0 0 0 0-2.288 1.145 1.145 0 0 0 0 2.288Z"></path><path fill="#e6560f" d="M240.077 253.48a1.837 1.837 0 0 0 0-3.673 1.837 1.837 0 0 0 0 3.672ZM258.977 192.054a1.837 1.837 0 0 0 0-3.672 1.837 1.837 0 0 0 0 3.672ZM210.405 179.806l1.07-.596 9.292 16.695-1.07.596zM192.62 206.544l.413-1.152 18.9 6.773-.412 1.152z"></path><path fill="#ffb957" d="m195.38 234.253 15.272-8.04.57 1.082-15.272 8.041z"></path><path fill="#e6560f" d="m205.48 239.545 11.969-11.34.841.887-11.97 11.341z"></path><path fill="#376f92" d="m206.73 193.331.859-.871 11.655 11.498-.86.87z"></path><path fill="#ffb957" d="M229.071 181.049h1.224v18.146h-1.224zM229.701 232.428h1.224v18.113h-1.224z"></path><path fill="#e6560f" d="m234.469 197.71 5.039-12.757 1.137.449-5.039 12.758z"></path><path fill="#ffb957" d="M198.34 216.066h15.592v1.224H198.34z"></path><path fill="#376f92" d="m205.683 223.666 11.97-4.54.434 1.143-11.97 4.54z"></path><path fill="#e6560f" d="m217.497 223.752 4.726-3.621.744.971-4.726 3.622z"></path><path fill="#ffb957" d="m208.442 204.931.584-1.075 9.136 4.961-.584 1.076zM222.032 193.921l1.127-.477 5.197 12.285-1.127.477z"></path><path fill="#e6560f" d="m222.064 203.91 1.061-.61 4.253 7.403-1.062.61zM232.089 228.825l1.171-.354 3.623 11.97-1.172.354z"></path><path fill="#376f92" d="m220.437 250.363 4.168-13.704 1.17.356-4.167 13.704z"></path><path fill="#e6560f" d="m241.892 203.132 8.98-7.4.778.945-8.98 7.4z"></path><path fill="#376f92" d="m245.95 206.76 13.543-6.698.542 1.098-13.543 6.697zM246.583 221.198l.377-1.165 18.979 6.142-.377 1.165z"></path><path fill="#ffb957" d="m239.523 233.16 1.109-.518 7.718 16.538-1.11.518z"></path><path fill="#376f92" d="m240.885 227.169.906-.823 10.867 11.97-.906.822z"></path><path fill="#e6560f" d="m247.743 216.068 11.184-.943.103 1.22-11.184.942z"></path><path fill="#ffb957" d="m235.772 205.18 3.78-6.3 1.05.63-3.78 6.3z"></path><path fill="#376f92" d="m231.123 210.927.945-7.048 1.213.162-.944 7.048z"></path><path fill="#ffb957" d="m219.193 236.606 2.836-6.93 1.133.464-2.836 6.93zM216.363 213.931l.494-1.12 5.355 2.363-.494 1.12zM226.242 230.68l.946-6.063 1.21.189-.947 6.063zM235.909 212.268l4.41-3.623.776.945-4.409 3.623zM243.776 212.15l6.38-1.731.32 1.181-6.38 1.73z"></path><path fill="#e6560f" d="m240.973 222.918.73-.982 6.457 4.804-.73.982z"></path><path fill="#376f92" d="m232.773 222.271 1.064-.605 2.993 5.263-1.064.605zM237.25 217.208l.616-1.059 3.78 2.205-.617 1.058zM252.047 232.06a1.837 1.837 0 0 0 0-3.673 1.837 1.837 0 0 0 0 3.672Z"></path><path fill="#e6560f" d="M615.302 278.669a1.849 1.849 0 0 0 0-3.696 1.849 1.849 0 0 0 0 3.696ZM634.325 216.845a1.849 1.849 0 0 0 0-3.696 1.849 1.849 0 0 0 0 3.696ZM585.437 204.516l1.077-.599 9.353 16.804-1.077.599zM567.537 231.429l.416-1.16 19.022 6.817-.415 1.16z"></path><path fill="#ffb957" d="m570.314 259.319 15.372-8.094.574 1.09-15.372 8.094z"></path><path fill="#e6560f" d="m580.48 264.644 12.047-11.415.847.894-12.047 11.414z"></path><path fill="#376f92" d="m581.738 218.13.865-.877 11.73 11.573-.865.877z"></path><path fill="#ffb957" d="M604.224 205.769h1.232v18.264h-1.232zM604.858 257.481h1.232v18.23h-1.232z"></path><path fill="#e6560f" d="m609.657 222.54 5.071-12.841 1.145.452-5.071 12.84z"></path><path fill="#ffb957" d="M573.294 241.013h15.694v1.232h-15.694z"></path><path fill="#376f92" d="m580.684 248.662 12.048-4.57.436 1.151-12.047 4.57z"></path><path fill="#e6560f" d="m592.575 248.749 4.757-3.646.75.978-4.757 3.645z"></path><path fill="#ffb957" d="m583.462 229.806.588-1.083 9.195 4.994-.588 1.082zM597.139 218.724l1.135-.48 5.23 12.365-1.134.48z"></path><path fill="#e6560f" d="m597.172 228.779 1.068-.614 4.28 7.45-1.068.614zM607.262 253.855l1.18-.357 3.645 12.048-1.179.357z"></path><path fill="#376f92" d="m595.534 275.533 4.195-13.794 1.178.359-4.194 13.793z"></path><path fill="#e6560f" d="m617.13 227.995 9.037-7.447.783.95-9.037 7.448z"></path><path fill="#376f92" d="m621.212 231.647 13.63-6.742.547 1.105-13.631 6.741zM621.85 246.178l.38-1.172 19.1 6.182-.379 1.172z"></path><path fill="#ffb957" d="m614.744 258.217 1.116-.521 7.768 16.645-1.116.52z"></path><path fill="#376f92" d="m616.115 252.188.912-.828 10.938 12.047-.912.828z"></path><path fill="#e6560f" d="m623.017 241.015 11.256-.95.104 1.227-11.256.95z"></path><path fill="#ffb957" d="m610.969 230.056 3.805-6.34 1.056.634-3.805 6.34z"></path><path fill="#376f92" d="m606.29 235.84.95-7.093 1.221.164-.95 7.093z"></path><path fill="#ffb957" d="m594.282 261.686 2.854-6.974 1.14.467-2.854 6.974zM591.434 238.864l.497-1.127 5.39 2.378-.497 1.127zM601.378 255.722l.952-6.102 1.218.19-.953 6.102zM611.107 237.19l4.438-3.646.782.951-4.438 3.647zM619.025 237.071l6.42-1.742.323 1.19-6.42 1.741z"></path><path fill="#e6560f" d="m616.203 247.909.735-.989 6.499 4.835-.736.989z"></path><path fill="#376f92" d="m607.95 247.258 1.071-.61 3.012 5.297-1.07.61zM612.455 242.161l.62-1.064 3.806 2.22-.621 1.063zM627.35 257.11a1.849 1.849 0 0 0 0-3.696 1.849 1.849 0 0 0 0 3.696Z"></path><path fill="#e6560f" d="M685.142 179.212a1.849 1.849 0 0 0 0-3.696 1.849 1.849 0 0 0 0 3.696ZM704.165 117.389a1.849 1.849 0 0 0 0-3.696 1.849 1.849 0 0 0 0 3.696ZM655.277 105.06l1.077-.6 9.352 16.804-1.076.599zM637.378 131.973l.416-1.16 19.022 6.817-.415 1.16z"></path><path fill="#ffb957" d="m640.154 159.862 15.372-8.093.574 1.09-15.372 8.093z"></path><path fill="#e6560f" d="m650.32 165.187 12.047-11.415.847.894-12.048 11.415z"></path><path fill="#376f92" d="m651.578 118.674.866-.877 11.73 11.573-.865.877z"></path><path fill="#ffb957" d="M674.064 106.312h1.232v18.264h-1.232zM674.698 158.024h1.232v18.23h-1.232z"></path><path fill="#e6560f" d="m679.497 123.082 5.072-12.841 1.145.452-5.072 12.84z"></path><path fill="#ffb957" d="M643.134 141.556h15.694v1.232h-15.694z"></path><path fill="#376f92" d="m650.525 149.206 12.047-4.57.437 1.151-12.048 4.57z"></path><path fill="#e6560f" d="m662.415 149.292 4.757-3.645.75.977-4.757 3.646z"></path><path fill="#ffb957" d="m653.302 130.35.588-1.083 9.194 4.993-.588 1.083zM666.98 119.268l1.134-.48 5.231 12.365-1.135.48z"></path><path fill="#e6560f" d="m667.012 129.322 1.068-.614 4.28 7.45-1.068.614zM677.102 154.398l1.18-.357 3.645 12.048-1.179.357z"></path><path fill="#376f92" d="m665.375 176.076 4.195-13.793 1.178.358-4.194 13.794z"></path><path fill="#e6560f" d="m686.97 128.538 9.037-7.447.783.95-9.037 7.448z"></path><path fill="#376f92" d="m691.053 132.19 13.631-6.741.546 1.104-13.63 6.742zM691.69 146.722l.38-1.172 19.1 6.182-.379 1.172z"></path><path fill="#ffb957" d="m684.584 158.76 1.116-.52 7.768 16.644-1.116.52z"></path><path fill="#376f92" d="m685.955 152.731.912-.828 10.938 12.047-.913.829z"></path><path fill="#e6560f" d="m692.858 141.558 11.256-.95.104 1.227-11.256.95z"></path><path fill="#ffb957" d="m680.81 130.6 3.805-6.34 1.056.634-3.805 6.34z"></path><path fill="#376f92" d="m676.13 136.384.951-7.093 1.221.163-.95 7.094z"></path><path fill="#ffb957" d="m664.121 162.23 2.855-6.975 1.14.467-2.854 6.974zM661.274 139.408l.497-1.128 5.39 2.378-.497 1.127zM671.218 156.265l.953-6.102 1.217.19-.953 6.102zM680.947 137.734l4.438-3.647.782.952-4.438 3.646zM688.865 137.614l6.42-1.741.323 1.189-6.42 1.741z"></path><path fill="#e6560f" d="m686.043 148.452.735-.988 6.499 4.835-.736.988z"></path><path fill="#376f92" d="m677.79 147.8 1.071-.608 3.012 5.296-1.07.61zM682.296 142.705l.62-1.064 3.805 2.219-.62 1.064zM697.19 157.653a1.849 1.849 0 0 0 0-3.696 1.849 1.849 0 0 0 0 3.696Z"></path><path fill="#d04719" d="m296.31 207.72-.92-.393a24.196 24.196 0 0 0 1.11-10.998c-.553-5.188.92-12.149 3.918-13.841a3.356 3.356 0 0 1 3.908.523 6.406 6.406 0 0 1 2.223 2.627c.852 1.77 1.47 4.87-.418 9.599l-.049.093s-.068.103-.188.257c-.45.58-1.662 1.924-3.111 1.805a3.426 3.426 0 0 1-2.574-2.1l-.059-.185a3.116 3.116 0 0 1 1.095-2.325 2.137 2.137 0 0 0 .477-2.012l.952-.305a3.146 3.146 0 0 1-.707 3.009 2.587 2.587 0 0 0-.818 1.45c.532.93 1.107 1.424 1.712 1.472.996.073 1.97-1.069 2.243-1.422.054-.07.094-.125.12-.16 1.367-3.455 1.514-6.476.425-8.74a5.553 5.553 0 0 0-1.877-2.233c-1.086-.818-2.005-.965-2.862-.483-2.584 1.46-3.935 7.996-3.415 12.865a24.693 24.693 0 0 1-1.186 11.496ZM310.22 214.687a.821.821 0 0 1-.458-.11l.554-.832c1.02.187 8.731-4.322 12.825-7.724 2.963-2.464 1.764-6.41 1.12-8.53a14.608 14.608 0 0 1-.285-1.018 53.42 53.42 0 0 1-.044-7.936c-4.245 1.244-3.652 4.016-3.025 6.942.469 2.192 1.001 4.678-1.573 5.56-4.66 1.594-5.342 3.236-5.349 3.252l-.946-.322c.068-.211.819-2.113 5.97-3.877 1.655-.567 1.44-1.97.92-4.403-.626-2.923-1.483-6.926 4.423-8.295l.648-.15-.036.664a57.432 57.432 0 0 0-.01 8.353c.052.244.15.563.264.94.66 2.175 2.036 6.701-1.438 9.588-2.644 2.198-11.114 7.898-13.56 7.898Z"></path><path fill="#376f92" d="m495.64 392.03 28.574-34.056s10.813-14.19 18.433-19.163c0 0 21.17 1.463 19.528 12s-27.406 91.08-71.11 99.81l-2.295-17.834s3.155-16.822 3.176-22.845.033-7.534.033-7.534 2.922-7.527 3.66-10.378Z"></path><path fill="#fd8b66" d="M433.92 409.21s-.136-4.716 3.434-2.49c2.486 1.55 5.605 4.04 5.535 7.107s-3.192 2.233-3.803 1.051"></path><path fill="#fd8b66" d="M431.33 412.727s-1.477-4.762 1.753-3.776 6.377 6.38 6.377 6.38 2.596 5.796-2.316 3.153"></path><path fill="#fd8b66" d="M430.129 416.07s-2.076-5.699 1.486-3.119 6.108 5.305 5.949 6.593-2.415 3.358-7.435-3.474Z"></path><path fill="#3d9ba8" d="M493.442 448.19a1.597 1.597 0 0 0 0-3.192 1.597 1.597 0 0 0 0 3.191ZM502.377 443.339a1.597 1.597 0 0 0 0-3.191 1.597 1.597 0 0 0 0 3.19ZM510.547 437.467a1.597 1.597 0 0 0 0-3.191 1.597 1.597 0 0 0 0 3.19ZM517.695 430.319a1.597 1.597 0 0 0 0-3.192 1.597 1.597 0 0 0 0 3.192ZM525.099 422.149a1.597 1.597 0 0 0 0-3.191 1.597 1.597 0 0 0 0 3.191ZM531.992 412.703a1.597 1.597 0 0 0 0-3.191 1.597 1.597 0 0 0 0 3.191ZM538.119 402.491a1.597 1.597 0 0 0 0-3.191 1.597 1.597 0 0 0 0 3.191ZM542.97 391.769a1.597 1.597 0 0 0 0-3.192 1.597 1.597 0 0 0 0 3.192ZM547.82 381.557a1.597 1.597 0 0 0 0-3.192 1.597 1.597 0 0 0 0 3.192ZM551.65 371.855a1.597 1.597 0 0 0 0-3.191 1.597 1.597 0 0 0 0 3.191ZM554.969 361.643a1.597 1.597 0 0 0 0-3.19 1.597 1.597 0 0 0 0 3.19ZM557.777 352.963a1.597 1.597 0 0 0 0-3.191 1.597 1.597 0 0 0 0 3.191Z"></path><path fill="#ce185e" d="m423.083 360.639.551 2.984-2.985.551-.55-2.985zM427.764 364.531l.55 2.985-2.984.55-.55-2.984zM432.617 369.318l.55 2.985-2.984.55-.551-2.984zM437.084 374.488l.551 2.985-2.985.55-.55-2.984z"></path><path fill="#702b72" d="m435.868 400.27 2.398-1.86 1.86 2.398-2.399 1.86zM451.48 408.278h3.035v3.035h-3.035zM479.234 411.173h3.035v3.035h-3.035zM461.866 387.117h3.035v3.035h-3.035zM480.752 385.565h3.035v3.035h-3.035zM480.173 345.168h3.035v3.035h-3.035zM432.402 457.164h3.035v3.035h-3.035zM452.998 438.314h3.035v3.035h-3.035zM436.141 432.104h3.035v3.035h-3.035zM463.383 417.657h3.035v3.035h-3.035zM492.475 366.3h3.035v3.035h-3.035zM471.089 364.782h3.035v3.035h-3.035z"></path><path fill="#ce185e" d="m429.73 382.304.552 2.984-2.985.551-.55-2.985zM424.779 378.076l.55 2.985-2.984.55-.55-2.984zM420.07 372.701l.55 2.985-2.984.55-.55-2.984z"></path><path fill="#d04719" d="M332.462 415.75c-.246-.088-2.413-.91-2.643-2.463-.127-.86.36-1.705 1.45-2.515 3.678-2.733 6.75-3.614 9.13-2.615 1.8.756 1.82 2.018 1.745 2.526a2.957 2.957 0 0 1-2.298 2.357l-.103-.996a1.978 1.978 0 0 0 1.411-1.508c.091-.61-.294-1.1-1.142-1.457-2.031-.85-4.773-.012-8.147 2.496-.53.393-1.142.984-1.056 1.565.12.817 1.513 1.496 1.992 1.67Z"></path><path fill="#d04719" d="M334.921 419.474c-.315-.023-3.093-.267-3.725-1.707a2.02 2.02 0 0 1 .496-2.114c2.195-2.767 8.325-3.747 8.585-3.787.623-.032 3.5-.096 4.045 1.288.313.794-.197 1.741-1.558 2.895l-.646-.763c1.405-1.19 1.308-1.68 1.274-1.765-.185-.47-1.704-.723-3.015-.662-.006.004-5.95.954-7.901 3.415-.36.454-.482.82-.365 1.09.307.7 2.076 1.052 2.884 1.113Z"></path><path fill="#d04719" d="m337.69 421.817-.071-.001c-1.094-.027-3.673-.22-4.01-1.427-.239-.856.68-1.56 1.392-2.017 3.24-2.077 7.257-3.993 8.82-3.147a2.034 2.034 0 0 1 1.033 2.015c-.15 1.26-1.504 3.074-7.095 4.56Zm5.153-5.809c-1.205 0-3.882 1.014-7.303 3.206-.947.607-.968.904-.968.906.082.277 1.43.644 3 .694 5.451-1.46 6.214-3.067 6.289-3.693a1.029 1.029 0 0 0-.518-1.017 1.068 1.068 0 0 0-.5-.096ZM441.137 416.444a2.934 2.934 0 0 1-2.495-1.336l.889-.46a1.986 1.986 0 0 0 1.92.763c.601-.139.917-.676.938-1.596.05-2.203-1.732-4.447-5.3-6.671-.559-.349-1.332-.702-1.842-.412-.717.41-.84 1.956-.827 2.465l-1 .028c-.007-.261-.034-2.579 1.328-3.36.754-.433 1.72-.288 2.87.43 3.889 2.425 5.83 4.962 5.77 7.543-.044 1.953-1.212 2.432-1.712 2.548a2.418 2.418 0 0 1-.539.058Z"></path><path fill="#d04719" d="M439.179 419.673a5.131 5.131 0 0 1-2.272-.749l.474-.88c1.622.872 2.041.603 2.11.54.37-.343.047-1.854-.487-3.048-.006-.004-3.063-5.189-6.066-6.107-.556-.17-.94-.15-1.148.06-.54.541-.221 2.316.018 3.09l-.955.296c-.094-.301-.882-2.977.228-4.092a2.019 2.019 0 0 1 2.148-.31c3.379 1.032 6.53 6.38 6.663 6.607.258.57 1.37 3.223.28 4.237a1.398 1.398 0 0 1-.993.356Z"></path><path fill="#d04719" d="M435.986 421.376c-1.29 0-3.317-1.004-6.26-5.01l-.067-.125c-.374-1.027-1.137-3.498-.137-4.253.71-.535 1.702.063 2.386.558 3.117 2.258 6.37 5.298 6.152 7.06a2.034 2.034 0 0 1-1.498 1.698 2.28 2.28 0 0 1-.576.072Zm-5.411-5.543c3.351 4.541 5.124 4.66 5.735 4.503a1.028 1.028 0 0 0 .757-.853c.109-.874-1.868-3.318-5.746-6.127-.91-.66-1.196-.572-1.197-.57-.228.177-.077 1.567.45 3.047Z"></path></svg>