<svg xmlns="http://www.w3.org/2000/svg" viewBox="0 0 64 64" id="flask"><defs><linearGradient id="a" x1="5.43" x2="55.85" y1="60.84" y2="10.42" gradientUnits="userSpaceOnUse"><stop offset="0" stop-color="#658def"></stop><stop offset=".19" stop-color="#6896ea"></stop><stop offset=".52" stop-color="#73afdc"></stop><stop offset=".91" stop-color="#84d8c8"></stop></linearGradient></defs><path fill="url(#a)" fill-rule="evenodd" d="m12,19.17c-.85.3-1.53.98-1.83,1.83h-3.67c-1.38,0-2.5,1.12-2.5,2.5s1.12,2.5,2.5,2.5h3.67c.3.85.98,1.53,1.83,1.83v22.34c-1.17.41-2,1.52-2,2.83v1h-3c-.8,0-1.56.32-2.12.88-.56.56-.88,1.33-.88,2.12v2c0,.55.45,1,1,1h20c.55,0,1-.45,1-1v-2c0-.8-.32-1.56-.88-2.12-.56-.56-1.33-.88-2.12-.88h-3v-1c0-1.31-.83-2.42-2-2.83v-22.34c.85-.3,1.53-.98,1.83-1.83h15.17c0,.8.32,1.56.88,2.12.56.56,1.33.88,2.12.88h1v1.79l-8.52,18.93c-.32.71-.48,1.47-.48,2.25v.56c0,3.03,2.45,5.48,5.48,5.48h19.04c3.03,0,5.48-2.45,5.48-5.48v-.56c0-.78-.16-1.54-.48-2.25l-8.52-18.93v-1.79h1c.8,0,1.56-.32,2.12-.88.56-.56.88-1.33.88-2.12v-5c0-.8-.32-1.56-.88-2.12-.56-.56-1.33-.88-2.12-.88h-1v-2.04c1.7-.24,3-1.7,3-3.46q0,.55,0,0c0-1.92-1.54-3.47-3.45-3.5l.4-1.84c.17-.79-.04-1.61-.59-2.23-.52-.59-1.29-.93-2.11-.93h-6.49c-.82,0-1.59.35-2.11.93-.55.62-.76,1.44-.59,2.23l.4,1.84c-1.91.03-3.45,1.58-3.45,3.5,0,1.76,1.3,3.22,3,3.46v2.04h-1c-.8,0-1.56.32-2.12.88-.56.56-.88,1.33-.88,2.12h-15.17c-.3-.85-.98-1.53-1.83-1.83V7c0-.8-.32-1.56-.88-2.12-.56-.56-1.33-.88-2.12-.88,0,0-.26,0,0,0-.8,0-1.56.32-2.12.88-.56.56-.88,1.33-.88,2.12v12.17h0Zm-5,36.83h16c.27,0,.52.11.71.29.19.19.29.44.29.71v1H6v-1c0-.27.11-.52.29-.71.19-.19.44-.29.71-.29h0Zm42.94-22.7c-.25.21-.49.43-.74.63-.61.49-1.25.89-2,1.04-.65.13-1.3.03-1.98-.15-.65-.17-1.31-.46-2.06-.34-.42.07-.65.28-.95.49-.67.48-1.51,1.08-3.56,1.43l-6.36,14.12c-.2.45-.31.94-.31,1.43v.56c0,1.92,1.56,3.48,3.48,3.48h19.04c1.92,0,3.48-1.56,3.48-3.48v-.56c0-.49-.1-.98-.31-1.43l-7.75-17.23h0Zm3.56,15.7c-1.38,0-2.5,1.12-2.5,2.5s1.12,2.5,2.5,2.5,2.5-1.12,2.5-2.5-1.12-2.5-2.5-2.5h0Zm-16.5-1c-1.66,0-3,1.34-3,3s1.34,3,3,3,3-1.34,3-3-1.34-3-3-3h0Zm-19,5v1h-6v-1c0-.55.45-1,1-1h4c.55,0,1,.45,1,1h0Zm28-1c.55,0,1,.45,1,1s-.45,1-1,1-1-.45-1-1,.45-1,1-1h0Zm7.5-1c.28,0,.5.22.5.5s-.22.5-.5.5-.5-.22-.5-.5.22-.5.5-.5h0Zm-16.5-1c.55,0,1,.45,1,1s-.45,1-1,1-1-.45-1-1,.45-1,1-1h0Zm-23,0h2v-22h-2v22h0Zm33-5c.55,0,1,.45,1,1s-.45,1-1,1-1-.45-1-1,.45-1,1-1h0Zm-7,0c.55,0,1,.45,1,1s-.45,1-1,1-1-.45-1-1,.45-1,1-1h0Zm2.5-7c-1.38,0-2.5,1.12-2.5,2.5s1.12,2.5,2.5,2.5,2.5-1.12,2.5-2.5-1.12-2.5-2.5-2.5h0Zm0,2c.28,0,.5.22.5.5s-.22.5-.5.5-.5-.22-.5-.5.22-.5.5-.5h0Zm6.5-2c.55,0,1,.45,1,1s-.45,1-1,1-1-.45-1-1,.45-1,1-1h0Zm-8-9v2c0,.14-.03.28-.09.41l-1.2,2.67c.85-.31,1.26-.68,1.67-.96.42-.29.84-.51,1.46-.61.9-.15,1.73.05,2.53.27.5.14.97.33,1.44.23.43-.09.78-.35,1.13-.64.39-.31.76-.66,1.16-.96h0c-.06-.14-.09-.28-.09-.42v-2h-8Zm11-9h-14c-.27,0-.52.11-.71.29-.19.19-.29.44-.29.71v5c0,.27.11.52.29.71.19.19.44.29.71.29h14c.27,0,.52-.11.71-.29.19-.19.29-.44.29-.71v-5c0-.27-.11-.52-.29-.71-.19-.19-.44-.29-.71-.29h0Zm-34,2v3c0,.55-.45,1-1,1h-4c-.55,0-1-.45-1-1v-3c0-.55.45-1,1-1h4c.55,0,1,.45,1,1h0Zm2,1v1h15v-1h-15Zm-10,0v1h-3.5c-.28,0-.5-.22-.5-.5s.22-.5.5-.5h3.5Zm6-4V7c0-.27-.11-.52-.29-.71-.19-.19-.44-.29-.71-.29s-.52.11-.71.29c-.19.19-.29.44-.29.71v12h2Zm25-3v2h8v-2h-8Zm9.5-5h-11c-.83,0-1.5.67-1.5,1.5s.67,1.5,1.5,1.5h11c.83,0,1.5-.67,1.5-1.5s-.67-1.5-1.5-1.5h0Zm-2-2l.49-2.26c.04-.17-.02-.35-.14-.48-.15-.17-.37-.26-.61-.26h-6.49c-.23,0-.46.09-.61.26-.12.14-.17.31-.14.48l.49,2.26h7Z"></path></svg>