<svg xmlns="http://www.w3.org/2000/svg" width="2in" height="2in" fill-rule="evenodd" clip-rule="evenodd" image-rendering="optimizeQuality" shape-rendering="geometricPrecision" text-rendering="geometricPrecision" viewBox="0 0 2000 2000" id="beaker"><path fill="#b200d9" d="M978 1017c-50 0-91-41-91-91 0-50 41-91 91-91 50 0 91 41 91 91 0 50-41 91-91 91zm0-148c-32 0-57 25-57 57 0 32 25 57 57 57 31 0 57-25 57-57 0-32-26-57-57-57zM1208 1406c-12 0-23-2-34-7-22-9-40-26-49-48-10-23-10-47-1-70 14-34 47-56 84-56 12 0 23 2 34 6 46 19 69 72 50 118-14 35-47 57-84 57zm0-148c-23 0-44 14-53 36-6 14-6 30 0 44 6 14 17 25 32 30 6 3 14 5 21 5 23 0 44-14 53-36 12-30-2-63-32-75-6-3-14-4-21-4zM1028 1718c-12 0-23-2-34-6-23-9-40-27-50-49-9-22-9-47 0-69 14-35 47-57 84-57 11 0 23 2 34 7 22 9 40 26 49 48 10 23 10 47 1 70-14 34-47 56-84 56zm0-148c-24 0-45 14-53 36-6 14-6 30 0 44 6 14 17 25 31 31 7 3 14 4 22 4 23 0 44-14 53-36 6-14 5-30-1-44-6-14-17-25-31-30-7-3-14-5-21-5zM640 1757c-11 0-23-3-34-7-46-19-68-72-50-118 14-34 47-57 84-57 12 0 24 3 34 7 23 9 40 26 50 49 9 22 10 47 0 69-13 34-46 57-84 57zm0-148c-23 0-44 14-53 36-12 29 3 62 32 74 7 3 14 4 21 4 24 0 45-14 54-35 5-15 5-30-1-44-6-14-17-25-31-31-7-3-14-4-22-4zM1351 1160l-702 0c-9 0-17-7-17-16 0-10 8-17 17-17l702 0c9 0 17 7 17 17 0 9-8 16-17 16z"></path><path fill="#2a0071" d="M1319 180l-638 0c-9 0-17-7-17-17 0-9 8-16 17-16l638 0c9 0 17 7 17 16 0 10-8 17-17 17zM1008 351l-208 0c-9 0-17-7-17-17 0-9 8-16 17-16l208 0c9 0 17 7 17 16 0 10-8 17-17 17zM1008 480l-208 0c-9 0-17-7-17-16 0-9 8-17 17-17l208 0c9 0 17 8 17 17 0 9-8 16-17 16zM1008 610l-208 0c-9 0-17-8-17-17 0-9 8-16 17-16l208 0c9 0 17 7 17 16 0 9-8 17-17 17z"></path><path fill="#2a0071" d="M1612 1853l-1224 0c-22,0 -41,-10 -53,-29 -11,-18 -12,-40 -3,-59l443 -923 0 -679c0,-9 8,-16 17,-16l416 0c9,0 17,7 17,16l0 679 443 923c9,19 8,41 -3,59 -12,19 -31,29 -53,29zm-803 -1673l0 666c0,2 -1,5 -2,7l-445 926c-4,9 -4,19 2,28 5,8 14,13 24,13l1224 0c10,0 19,-5 24,-13 6,-9 6,-19 2,-28l-445 -926c-1,-2 -2,-5 -2,-7l0 -666 -382 0z"></path></svg>