<svg xmlns="http://www.w3.org/2000/svg" viewBox="0 0 512 512" id="experiment"><g><g><path fill="#00acea" d="M157.782,343a10,10,0,0,0-10,10,108.262,108.262,0,1,0,216.524,0,10,10,0,0,0-10-10Zm98.261,98.262A88.389,88.389,0,0,1,168.345,363h175.4A88.39,88.39,0,0,1,256.043,441.262Z"></path></g><g><path fill="#00efd1" d="M109.035,353.131c0,80.989,65.918,146.878,146.943,146.878A146.8,146.8,0,0,0,312,217.614V78h13a10,10,0,0,0,10-10V22a10,10,0,0,0-10-10H186a10,10,0,0,0-10,10V68a10,10,0,0,0,10,10h13V217.661C144.908,240.552,109.035,294.125,109.035,353.131ZM196,32H315V58H196Zm96,46V224.459a10,10,0,0,0,6.608,9.408,126.789,126.789,0,0,1-42.63,246.142c-70,0-126.943-56.917-126.943-126.878A127.631,127.631,0,0,1,212.45,233.846a10,10,0,0,0,6.55-9.387V78Z"></path></g></g></svg>