<svg xmlns="http://www.w3.org/2000/svg" viewBox="0 0 512 512" id="earth"><defs><clipPath id="a"><rect width="17.13" height="64.28" x="262.7" y="389.6" fill="none"></rect></clipPath></defs><path fill="#d7981a" d="M246.14,394.1a4.51,4.51,0,0,1-4.29-5.87L352.17,44.58a4.5,4.5,0,1,1,8.57,2.75L250.42,391A4.5,4.5,0,0,1,246.14,394.1Z"></path><g clip-path="url(#a)"><rect width="17.13" height="64.28" x="262.7" y="389.6" fill="#efbd42"></rect><rect width="26.39" height="16.47" x="258.84" y="389.6" fill="#d7981a"></rect></g><circle cx="271.27" cy="210.3" r="156.44" fill="#86ebf9"></circle><path fill="#40c2d6" d="M420.44,257.46A156.18,156.18,0,0,0,402,124.35c.6,59.47-12.79,237-195,228.59C292.87,391.51,392.33,346.36,420.44,257.46Z"></path><path fill="#287eef" d="M256 72.52c24 20.71-8.13 29.68 19.14 48.08s-17.28 34.91.49 51.76 42.12 8.95 49.8-5.48 6.19-25.51 29.08-30.76 1.23-17.72 17.42-29.45a73.87 73.87 0 0110.53-6.5 156.62 156.62 0 00-135.68-44.4C247.14 61.37 249.71 67.15 256 72.52zM411.39 140.74c-10.36 2.61-21.89 8.9-27.13 23.53-10.64 29.72-26.77 11.63-36 34.88s6.16 31.85 24.65 34.57 5.52 28-17.06 28.32-20.24 30.43.29 30.68 26.78-3.81 32.76 20.76h0A156.45 156.45 0 00411.39 140.74zM131.25 200.4c14.74 13.17 24.2-5.46 37.68-10.56S193.81 204 205.82 201.5s19.84-19.32 4.06-34.81 11.84-19.47 2.92-36.65S179.31 119.46 185.17 97c1.8-6.9.59-12.09-1.94-16a156.25 156.25 0 00-67.4 111.42A32 32 0 01131.25 200.4zM317.74 341.13c-33.16 22-9.22-12.28-35.24-14.89S248 321 264.76 299.41s12.88-19-1.84-33.67S292 235 274.68 219.52s-45.36 4.39-56.75 22.64-13-10.34-39.46-7.48S174 258.85 140.42 247c-8.74-3.09-15.79-2.87-21.46-.88C143.4 349.61 260.56 398.25 350.79 345 344.29 336.24 333.84 330.47 317.74 341.13z"></path><path fill="#287eef" d="M401.64,144.37a34.94,34.94,0,0,0-17.38,19.9c-10.64,29.72-26.77,11.63-36,34.88s6.16,31.85,24.65,34.57,5.52,28-17.06,28.32c-22.15.34-20.31,29.25-.88,30.61C390.87,246.45,399.88,184.18,401.64,144.37Z"></path><path fill="#1573d8" d="M388.91,313.48a156.45,156.45,0,0,0,22.48-172.74,45.76,45.76,0,0,0-9.75,3.63c-1.76,39.81-10.77,102.08-46.66,148.28.38,0,.77.06,1.17.07C376.67,293,382.93,288.91,388.91,313.48Z"></path><path fill="#287eef" d="M282.5,326.24c-26-2.6-34.53-5.29-17.74-26.83s12.88-19-1.84-33.67S292,235,274.68,219.52s-45.36,4.39-56.75,22.64-13-10.34-39.46-7.48S174,258.85,140.42,247c-8.74-3.09-15.79-2.87-21.46-.88A156.47,156.47,0,0,0,207,352.94c36,1.67,65.43-3.94,89.45-14.47C295.18,333.05,292.61,327.26,282.5,326.24Z"></path><path fill="#1573d8" d="M350.79,345c-6.5-8.78-17-14.55-33.05-3.89-20.27,13.44-19.21,5.86-21.26-2.66C272.46,349,243,354.61,207,352.94A156.08,156.08,0,0,0,350.79,345Z"></path><path fill="#e9faff" d="M157,125.73s45.37-77.22,150.21-59.06C307.23,66.67,245.14,57.87,157,125.73Z"></path><ellipse cx="141.14" cy="154.11" fill="#e9faff" rx="9.82" ry="6.59" transform="rotate(-72.46 141.138 154.108)"></ellipse><path fill="#efbd42" d="M456.24 267.29c30.53-96.58-20.82-199.79-114.93-234.4a7.14 7.14 0 00-4.87 13.43c87 32 134.4 127.4 106.18 216.66S321 402.9 231.57 379.35a7.55 7.55 0 00-9.15 5 6.78 6.78 0 004.67 8.6C324.11 419 425.68 364 456.24 267.29zM271.27 429.28c-34.52 0-64.76 15.41-81.49 38.49h163C336 444.69 305.79 429.28 271.27 429.28z"></path><rect width="162.97" height="14.69" x="189.78" y="467.77" fill="#d7981a"></rect><path fill="#d7981a" d="M279.83,429.61s51.84,11.18,46,38.16h26.93C337.42,446.62,310.75,431.92,279.83,429.61Z"></path><path fill="#2d1929" d="M122.41,283.26a254.21,254.21,0,0,0,6.05,67.95L148,296.31Z"></path><path fill="#e73f46" d="M47.69,315.76l42.59-1.15,60.24-131Z"></path><polygon fill="#e73f46" points="150.54 183.53 124.88 313.31 181.87 312.88 150.54 183.53"></polygon><path fill="#cc3745" d="M90.28,314.61l38.26,36.54-3.66-37.84,25.66-129.78Z"></path><path fill="#86ebf9" d="M115.25 351.75c10.79 38.82 39.54 67.77 76.6 80.36l10.73-5.8A144.64 144.64 0 01115.25 351.75zM92.19 426.44a126.21 126.21 0 01-5.88-95.13c-4.25 30.17 1 61.83 17.49 91.65z"></path></svg>