<svg xmlns="http://www.w3.org/2000/svg" enable-background="new 0 0 50 50" viewBox="0 0 50 50" id="global-money"><path fill="#96D696" d="M44.1625,9.677c-0.2752,0.5962-0.1391,1.4941,0.3041,2.0069l-3.0184,6.5389
					c0.6835-1.4807,0.1891-3.8919-1.1019-5.3855c-1.2887-1.4909-2.8924-1.5071-3.5759-0.0264l3.0184-6.5389
					c0.4432,0.5128,1.0249,0.4454,1.3001-0.1509L44.1625,9.677z M42.2741,11.0861l0.1272-0.2755l-0.1614-0.1867
					c0.0737-0.2875,0.0249-0.6222-0.1341-0.8061c-0.1878-0.2173-0.4587-0.143-0.6008,0.1648
					c-0.0704,0.1525-0.1942,0.2127-0.2664,0.1291c-0.0723-0.0836-0.0737-0.2887-0.0033-0.4412
					c0.0703-0.1523,0.1927-0.2092,0.265-0.1256l0.1287-0.2787c-0.159-0.184-0.3752-0.1559-0.5259,0.0426l-0.1614-0.1867
					l-0.1272,0.2755l0.1614,0.1867c-0.0736,0.2874-0.0235,0.619,0.1356,0.803c0.1878,0.2173,0.4572,0.1462,0.6008-0.1649
					c0.0703-0.1523,0.1926-0.2094,0.2649-0.1258c0.0723,0.0836,0.0752,0.2856,0.0049,0.4379
					c-0.0704,0.1525-0.1943,0.2126-0.2665,0.129l-0.1272,0.2755c0.159,0.184,0.3738,0.1589,0.5244-0.0394L42.2741,11.0861"></path><g><path fill="#96D696" d="M40.0984,14.9512c0.3156,0.3651,0.416,1.0279,0.2679,1.5971l0.3204,0.3706l-0.2529,0.5478
						l-0.3204-0.3706c-0.2975,0.3963-0.7269,0.4461-1.0425,0.0811l0.2528-0.5476c0.1421,0.1644,0.39,0.0437,0.5276-0.2544
						c0.1391-0.3013,0.1364-0.7119-0.0057-0.8763c-0.1445-0.1672-0.3924-0.0465-0.5315,0.2548
						c-0.2827,0.6125-0.8165,0.7602-1.1899,0.3283c-0.3155-0.3651-0.4184-1.0307-0.2703-1.5998l-0.3204-0.3706l0.2529-0.5478
						l0.3204,0.3706c0.2975-0.3963,0.7294-0.4433,1.0449-0.0783l-0.2528,0.5476c-0.1445-0.1672-0.3924-0.0465-0.5315,0.2548
						c-0.1376,0.2981-0.135,0.7087,0.0095,0.8759c0.1421,0.1644,0.39,0.0437,0.5276-0.2544
						C39.1888,14.6642,39.725,14.5193,40.0984,14.9512z"></path><path fill="#5FAF5F" d="M40.3463,12.8372c1.291,1.4936,1.7854,3.9048,1.1019,5.3855
						c-0.6806,1.4743-2.2833,1.4642-3.5743-0.0295c-1.2887-1.4909-1.7841-3.9081-1.1035-5.3825
						C37.4538,11.3301,39.0576,11.3463,40.3463,12.8372z M40.4337,17.4667l0.2528-0.5478l-0.3204-0.3707
						c0.1482-0.569,0.0476-1.232-0.2678-1.597c-0.3734-0.432-0.9096-0.2871-1.1938,0.3286
						c-0.1376,0.2981-0.3853,0.4189-0.5275,0.2544c-0.1445-0.1672-0.1472-0.5777-0.0096-0.8758
						c0.1391-0.3013,0.387-0.4221,0.5315-0.2549l0.2528-0.5476c-0.3156-0.3651-0.7475-0.3181-1.0449,0.0782l-0.3203-0.3706
						l-0.2529,0.5478l0.3203,0.3706c-0.1482,0.5691-0.0453,1.2348,0.2703,1.5999c0.3733,0.4319,0.9071,0.2842,1.1898-0.3282
						c0.1391-0.3013,0.387-0.4221,0.5315-0.2549c0.142,0.1643,0.1446,0.575,0.0056,0.8762
						c-0.1376,0.2981-0.3855,0.4187-0.5275,0.2544l-0.2528,0.5476c0.3155,0.365,0.745,0.3154,1.0425-0.0811L40.4337,17.4667"></path></g><path fill="#5FAF5F" d="M37.1087,20.6433c0.159,0.1839,0.2092,0.5154,0.1356,0.803l0.1614,0.1867l-0.1272,0.2755l-0.1614-0.1867
					c-0.1507,0.1984-0.3655,0.2233-0.5244,0.0394l0.1272-0.2755c0.0723,0.0836,0.1962,0.0233,0.265-0.1257
					c0.0704-0.1524,0.069-0.3576-0.0033-0.4412c-0.0723-0.0836-0.1962-0.0233-0.2665,0.1291
					c-0.1421,0.3078-0.4114,0.3789-0.5993,0.1615c-0.159-0.1839-0.2092-0.5154-0.1356-0.803l-0.1614-0.1867l0.1272-0.2755
					l0.1614,0.1867c0.1507-0.1984,0.3654-0.2233,0.5244-0.0394l-0.1272,0.2755c-0.0723-0.0836-0.1962-0.0233-0.2665,0.1291
					c-0.0688,0.1491-0.0675,0.3543,0.0048,0.4379c0.0723,0.0836,0.1962,0.0233,0.265-0.1257
					C36.6516,20.4971,36.9209,20.4259,37.1087,20.6433z"></path><path fill="#96D696" d="M37.8739,18.1933c1.291,1.4936,2.8938,1.5038,3.5743,0.0295l-2.8509,6.176
					c-0.4432-0.5128-1.0249-0.4454-1.3001,0.1509l-3.0736-3.5559c0.2752-0.5962,0.1391-1.4941-0.3041-2.0069l2.8509-6.176
					C36.0898,14.2851,36.5852,16.7024,37.8739,18.1933z M37.2784,21.9084l0.1271-0.2754l-0.1614-0.1867
					c0.0737-0.2875,0.0235-0.619-0.1356-0.803c-0.1878-0.2173-0.4572-0.1462-0.6008,0.1649
					c-0.0688,0.149-0.1926,0.2094-0.2649,0.1258c-0.0723-0.0836-0.0737-0.2889-0.0049-0.4379
					c0.0704-0.1525,0.1944-0.2127,0.2666-0.1291l0.1271-0.2754c-0.159-0.184-0.3738-0.159-0.5244,0.0394l-0.1614-0.1867
					l-0.1271,0.2754l0.1614,0.1867c-0.0737,0.2875-0.0235,0.6191,0.1355,0.8031c0.1878,0.2173,0.4572,0.1462,0.5993-0.1616
					c0.0704-0.1525,0.1942-0.2128,0.2665-0.1292c0.0723,0.0836,0.0737,0.2889,0.0033,0.4414
					c-0.0688,0.149-0.1927,0.2092-0.265,0.1256l-0.1272,0.2755c0.159,0.184,0.3738,0.1589,0.5245-0.0396L37.2784,21.9084"></path><path fill="#5FAF5F" d="M42.1059,9.8178c0.159,0.1839,0.2077,0.5186,0.1341,0.8062l0.1614,0.1867l-0.1272,0.2755l-0.1614-0.1867
					c-0.1507,0.1984-0.3655,0.2233-0.5244,0.0394l0.1272-0.2755c0.0723,0.0836,0.1962,0.0233,0.2665-0.1291
					c0.0703-0.1522,0.0674-0.3543-0.0048-0.4379c-0.0723-0.0836-0.1947-0.0265-0.265,0.1257
					c-0.1436,0.3112-0.4129,0.3823-0.6008,0.1649c-0.159-0.1839-0.2092-0.5155-0.1356-0.803l-0.1614-0.1867l0.1272-0.2755
					l0.1614,0.1867C41.2538,9.1102,41.47,9.082,41.629,9.266l-0.1286,0.2786c-0.0723-0.0836-0.1947-0.0265-0.265,0.1257
					c-0.0704,0.1524-0.069,0.3576,0.0033,0.4412c0.0723,0.0836,0.1962,0.0233,0.2665-0.1291
					C41.6473,9.6747,41.918,9.6004,42.1059,9.8178z"></path><path fill="#5FAF5F" d="M40.0856,3.8518l5.7473,6.6492L38.302,26.8155l-5.7473-6.6492L40.0856,3.8518z M41.4482,18.2228
					l3.0184-6.5389c-0.4432-0.5128-0.5793-1.4107-0.3041-2.0069l-3.0736-3.5559c-0.2752,0.5962-0.8569,0.6636-1.3001,0.1509
					l-5.8693,12.7149c0.4432,0.5128,0.5793,1.4107,0.3041,2.0069l3.0736,3.5559c0.2752-0.5962,0.8569-0.6636,1.3001-0.1509
					L41.4482,18.2228"></path><g opacity=".1"><polygon fill="#272E3A" points="41.693 5.712 40.086 3.852 32.556 20.162 33.823 21.628 38.376 24.712"></polygon></g><g><g><path fill="#5FAF5F" d="M34.9522 19.6758c.1305.151.2031.4172.1884.685l.1811.12-.0688.3331-.182-.1261c-.104.2574-.2988.3751-.4784.2518l.0696-.3269c.0794.0522.1859-.0584.2242-.2376.0346-.1612.0079-.345-.0574-.4202-.0073-.0085-.0151-.0156-.0234-.0212-.0818-.055-.1867.0523-.2266.2348-.0774.3678-.3123.5484-.5243.4074-.0279-.0191-.0541-.0429-.0783-.0709-.1291-.1493-.2016-.4156-.1869-.6833l-.182-.1261.0696-.3269.1835.1228c.1016-.2602.2973-.3718.4768-.2485l-.0696.3269c-.0819-.0548-.1843.0551-.2228.2344-.0345.161-.0078.3448.0574.4202.0073.0085.0151.0156.0234.0212.0818.055.1843-.0551.2228-.2344.0773-.3676.3137-.5515.5243-.4074C34.9013 19.6233 34.9278 19.6475 34.9522 19.6758zM38.436 15.551c-.4099 1.6718-1.8597 2.251-3.2848 1.2882-.278-.1888-.5355-.4232-.767-.6911-.9788-1.1324-1.4987-2.8638-1.1996-4.2845.3734-1.7607 1.8567-2.3892 3.3109-1.4027.2781.1889.5355.4232.7669.691.9528 1.1024 1.4696 2.7725 1.221 4.1734-.0066.0383-.0139.0766-.0219.1143C38.4536 15.4775 38.445 15.5144 38.436 15.551zM37.0277 14.8395l.3631.2461.1354-.6535-.3616-.2493c.0319-.5258-.1095-1.0532-.3674-1.3515-.0495-.0573-.1034-.1062-.1613-.145-.4211-.2884-.8885.0755-1.0417.808-.0769.3584-.2842.5756-.4479.4658-.0154-.0107-.0302-.0243-.0441-.0403-.129-.1492-.1845-.5156-.1165-.8364.0768-.3585.2842-.5756.4455-.4687l.1393-.6541c-.3582-.2405-.7456-.0177-.9513.4999l-.3631-.2461-.1379.6506.3631.2461c-.0312.531.1105 1.0592.3684 1.3575.0496.0574.1034.1063.1611.1451.4188.2855.8885-.0755 1.0418-.8079.0769-.3584.2843-.5758.4455-.4688.0159.0112.0309.0251.0451.0415.1303.1508.185.5122.118.8381-.0768.3585-.2843.5759-.4455.4688l-.1377.6507C36.4347 15.58 36.8221 15.3572 37.0277 14.8395"></path><path fill="#96D696" d="M36.9104 22.7863c-.4996-.3344-1.0262-.0341-1.1754.6733l-3.4647-2.3483c.1248-.5914-.053-1.2825-.4072-1.6923-.0694-.0803-.1458-.1498-.2279-.2056l1.5496-7.3496c-.2991 1.4207.2208 3.1521 1.1996 4.2845.2315.2678.489.5023.767.6911 1.425.9628 2.8749.3837 3.2848-1.2882L36.9104 22.7863zM35.0709 20.6878l.182.126.0687-.3329-.1811-.1201c.0147-.2678-.0579-.534-.1883-.6849-.0245-.0284-.051-.0525-.0793-.072-.2105-.1442-.447.0397-.5244.4074-.0384.1794-.1409.2895-.2227.2345-.0083-.0056-.016-.0128-.0234-.0212-.0652-.0754-.0919-.2591-.0574-.4202.0384-.1794.1409-.2892.2227-.2345l.0697-.3268c-.1796-.1234-.3752-.0119-.4769.2484l-.1835-.1228-.0696.327.182.126c-.0147.2678.0579.534.187.6834.0242.028.0504.0518.0783.0709.212.141.4468-.0396.5242-.4073.04-.1825.145-.2898.2267-.2348.0083.0055.0161.0126.0235.0212.0651.0751.0918.2588.0573.42-.0384.1793-.1449.2899-.2242.2377l-.0696.327C34.7721 21.0628 34.9669 20.9453 35.0709 20.6878M36.4955 10.4609c-1.4542-.9865-2.9375-.3581-3.3097 1.3975l1.6398-7.7781c.4981.3378 1.0249.0374 1.1754-.6731l3.4647 2.3483c-.1235.5945.0531 1.2842.4048 1.6911.0701.0811.1474.1512.2305.2069l-1.6176 7.6716c.2485-1.4009-.2682-3.071-1.221-4.1734C37.031 10.8842 36.7737 10.6498 36.4955 10.4609zM36.5751 6.6063L36.394 6.4865l-.0696.327.182.126c-.0167.2654.0555.5313.186.6822.0244.0283.0508.0526.0792.0719.2121.1411.4469-.0394.5244-.4074.0383-.1791.1424-.2925.2242-.2377.0075.0054.0146.0121.0213.0197.0656.0759.0944.259.0595.4216-.0374.1855-.1423.2926-.2242.2377L37.307 8.0548c.1796.123.3753.0114.4783-.2518l.1821.1259.0696-.3269L37.855 7.4758c.0167-.2652-.0555-.5313-.186-.6822-.0244-.0283-.0509-.0524-.0792-.0719-.2121-.1411-.447.0396-.5244.4075-.0383.1791-.1447.2896-.2251.2315-.0082-.0053-.016-.0125-.0233-.0209-.0633-.0732-.091-.2544-.0575-.4204.0384-.1793.1433-.2864.2252-.2316l.0673-.3298C36.8747 6.2373 36.6791 6.3492 36.5751 6.6063"></path><path fill="#5FAF5F" d="M41.1557,5.921l-4.093,19.4174l-6.4822-4.3928l4.0929-19.4172L41.1557,5.921z M35.735,23.4595
						c0.1492-0.7074,0.6758-1.0077,1.1754-0.6733l1.5256-7.2352c0.0089-0.0366,0.0175-0.0735,0.0255-0.1114
						c0.0079-0.0377,0.0152-0.076,0.0219-0.1143l1.6176-7.6716c-0.0831-0.0557-0.1603-0.1258-0.2305-0.2069
						c-0.3517-0.4069-0.5283-1.0966-0.4048-1.6911L36.001,3.4073c-0.1505,0.7105-0.6773,1.0108-1.1754,0.6731l-1.6398,7.7781
						l-1.5507,7.3548c0.0822,0.0558,0.1585,0.1253,0.2279,0.2056c0.3542,0.4098,0.532,1.1009,0.4072,1.6923L35.735,23.4595"></path><path fill="#96D696" d="M36.7973,12.8315c0.2578,0.2983,0.3993,0.8255,0.3673,1.3513l0.3616,0.2493l-0.1354,0.6535
						l-0.3631-0.2461c-0.2057,0.5177-0.5931,0.7404-0.9499,0.4968l0.1378-0.6507c0.1612,0.107,0.3687-0.1103,0.4455-0.4689
						c0.0671-0.3258,0.0124-0.6873-0.1179-0.8381c-0.0142-0.0164-0.0293-0.0303-0.0452-0.0415
						c-0.1612-0.107-0.3687,0.1103-0.4455,0.4689c-0.1533,0.7323-0.623,1.0934-1.0418,0.8079
						c-0.0578-0.0388-0.1115-0.0878-0.1611-0.1451c-0.2579-0.2984-0.3996-0.8264-0.3684-1.3574l-0.3631-0.2461l0.1378-0.6507
						l0.3631,0.2461c0.2057-0.5177,0.5931-0.7404,0.9513-0.4999l-0.1393,0.6541c-0.1612-0.107-0.3686,0.1102-0.4455,0.4687
						c-0.068,0.3207-0.0125,0.6873,0.1165,0.8365c0.0139,0.016,0.0286,0.0296,0.0441,0.0402
						c0.1636,0.1098,0.3711-0.1074,0.4479-0.4659c0.1533-0.7323,0.6206-1.0964,1.0418-0.8079
						C36.6938,12.7253,36.7477,12.7742,36.7973,12.8315z"></path></g><path fill="#5FAF5F" d="M37.6692,6.7936c0.1305,0.1509,0.2026,0.417,0.186,0.6822l0.182,0.1261l-0.0696,0.3269l-0.1821-0.1259
					c-0.1031,0.2634-0.2987,0.375-0.4784,0.2518l0.0697-0.3271c0.0818,0.055,0.1867-0.0523,0.2242-0.2376
					c0.0349-0.1627,0.0061-0.3457-0.0596-0.4216c-0.0067-0.0077-0.0138-0.0143-0.0212-0.0197
					c-0.0818-0.055-0.1859,0.0584-0.2242,0.2376c-0.0774,0.3678-0.3123,0.5484-0.5243,0.4074
					c-0.0284-0.0194-0.0548-0.0437-0.0793-0.072c-0.1305-0.1509-0.2027-0.4168-0.186-0.6822l-0.182-0.1259l0.0697-0.3271
					l0.1811,0.12c0.104-0.2573,0.2997-0.369,0.4768-0.2485l-0.0672,0.3297c-0.0819-0.0548-0.1868,0.0525-0.2252,0.2316
					c-0.0336,0.1661-0.0059,0.3473,0.0575,0.4206c0.0073,0.0085,0.0151,0.0155,0.0233,0.0208
					c0.0803,0.0581,0.1867-0.0523,0.2251-0.2315c0.0774-0.3678,0.3123-0.5485,0.5244-0.4076
					C37.6182,6.7411,37.6447,6.7653,37.6692,6.7936z"></path></g><g opacity=".1"><polygon fill="#272E3A" points="36.643 2.865 34.675 1.532 30.576 20.942 32.265 22.088 37.016 23.372"></polygon></g><g><path fill="#96D696" d="M33.4215,11.6733c0.2067,0.2392,0.3588,0.6287,0.4102,1.0641l0.3787,0.1002l-0.0128,0.7161
					l-0.3771-0.1035c-0.0998,0.6005-0.4196,0.9811-0.7905,0.8799l0.0112-0.7127c0.1701,0.0477,0.3249-0.2555,0.3313-0.6456
					c0.005-0.3065-0.0811-0.6081-0.2007-0.7465c-0.0327-0.0378-0.0679-0.0634-0.1043-0.0737
					c-0.1677-0.0449-0.3224,0.2583-0.3289,0.6485c-0.0141,0.799-0.3818,1.3475-0.8228,1.2301
					c-0.1219-0.0332-0.2366-0.1149-0.3384-0.2326c-0.2079-0.2405-0.3621-0.6315-0.4146-1.0659l-0.3772-0.1034l0.0112-0.7127
					l0.3796,0.1062c0.0973-0.6031,0.4171-0.9837,0.7895-0.8859l-0.0127,0.7159c-0.1677-0.0449-0.321,0.2551-0.3274,0.6452
					c-0.0063,0.3101,0.0811,0.6111,0.1998,0.7484c0.0319,0.0369,0.0661,0.0621,0.1013,0.0722
					c0.1716,0.0445,0.3249-0.2555,0.3313-0.6456c0.0141-0.7989,0.3834-1.3509,0.8229-1.2302
					C33.2042,11.4739,33.3195,11.5553,33.4215,11.6733z"></path><path fill="#5FAF5F" d="M35.2487 13.5698c-.071 1.8627-1.318 3.0415-2.81 2.6411-.5772-.1568-1.1101-.5283-1.5469-1.0337-.711-.8225-1.1674-1.9997-1.1464-3.1857.0328-1.9204 1.2958-3.1434 2.8139-2.7341.5761.1569 1.1076.5273 1.5434 1.0315.6976.807 1.1497 1.9565 1.1487 3.122 0 .0232.0002.0463-.0002.0692C35.2508 13.5104 35.2499 13.5401 35.2487 13.5698zM33.0299 14.33c.3709.1012.6907-.2795.7905-.8799l.3771.1035.0128-.716-.3787-.1002c-.0514-.4355-.2035-.8249-.4102-1.0641-.102-.118-.2173-.1994-.3404-.2317-.4394-.1208-.8087.4312-.8228 1.2301-.0064.3902-.1597.6901-.3313.6456-.0353-.0099-.0694-.0352-.1013-.0722-.1186-.1372-.2061-.4382-.1998-.7484.0065-.3899.1597-.6901.3275-.6451l.0126-.7159c-.3724-.0977-.6921.2827-.7895.8859l-.3797-.1062-.0111.7127.3772.1033c.0524.4345.2066.8255.4145 1.066.1019.1178.2165.1994.3384.2326.441.1174.8087-.4312.8228-1.2301.0065-.3903.1611-.6936.3289-.6486.0365.0104.0716.036.1043.0737.1196.1384.2057.4401.2007.7464-.0064.3902-.1611.6934-.3312.6457L33.0299 14.33M32.8368 19.2217c.1047.1211.1824.317.2087.5343l.1905.0516-.0071.3596-.1905-.0516c-.0475.3029-.2093.4935-.396.4417l.0056-.3564c.085.0239.1632-.1294.1652-.3258.0027-.1552-.0393-.3052-.0988-.3741-.0171-.0197-.0356-.0328-.0549-.0374-.0826-.0212-.1593.1288-.1652.3258-.007.3994-.1912.6784-.411.6181-.062-.0173-.1204-.059-.1723-.1189-.1042-.1205-.1815-.3149-.2066-.5332l-.1906-.0514.0071-.3596.1906.0514c.0475-.3029.2093-.4935.396-.4415l-.0056.3564c-.085-.0239-.1631.1292-.1652.3258-.0046.1548.0396.3077.0989.3762.0161.0186.0334.031.051.0356.085.0239.1631-.1292.1676-.3231.0085-.4027.1927-.6816.4124-.6213C32.7279 19.121 32.7856 19.1624 32.8368 19.2217zM33.0824 5.1755c.1049.1213.1824.3184.2077.538l.1905.0516-.0056.3563L33.2845 6.07c-.0489.3061-.2093.4935-.3975.4449l.0071-.3596c.0851.0238.1617-.1262.1652-.3259.0035-.1521-.0408-.3045-.1001-.373-.0162-.0187-.0335-.0312-.0512-.0358-.0851-.0238-.1632.1294-.1676.3231-.0047.4024-.1912.6784-.4125.6214-.0611-.017-.1186-.0582-.1697-.1173-.1048-.1213-.1824-.3183-.2077-.538L31.76 5.6582l.0056-.3563.1906.0514c.0489-.3061.2093-.4935.3974-.4447l-.0071.3596c-.085-.0239-.1617.1261-.1651.3257-.0017.1545.0416.3054.1015.3747.0163.0189.0339.0317.0522.0369.0827.021.1632-.1294.1652-.3259.0071-.3996.1912-.6784.4125-.6214C32.9739 5.0753 33.0314 5.1165 33.0824 5.1755z"></path><path fill="#96D696" d="M35.1104,21.4941c-0.5221-0.1418-0.9548,0.3715-0.9686,1.146l-3.6168-0.9784
					c0.0091-0.5157-0.1708-1.0165-0.4462-1.3351c-0.1381-0.1598-0.3001-0.2738-0.4742-0.321l0.2879-16.4978
					c0.5221,0.1418,0.9564-0.3746,0.9702-1.149l3.6153,0.9816c-0.0092,0.5159,0.1707,1.0167,0.4461,1.3353
					c0.138,0.1596,0.3001,0.2738,0.4742,0.321l-0.1469,8.4144c0.001-1.1654-0.4511-2.3149-1.1487-3.122
					c-0.4358-0.5042-0.9673-0.8746-1.5434-1.0315c-1.5181-0.4093-2.781,0.8137-2.8139,2.7341
					c-0.021,1.1859,0.4354,2.3632,1.1464,3.1857c0.4368,0.5053,0.9697,0.8769,1.5469,1.0337c1.492,0.4004,2.739-0.7783,2.81-2.6411
					L35.1104,21.4941z M31.76,5.6582l0.1905,0.0515c0.0253,0.2197,0.1029,0.4168,0.2078,0.5381
					c0.051,0.059,0.1085,0.1002,0.1696,0.1173c0.2213,0.057,0.4078-0.2192,0.4125-0.6213c0.0043-0.1938,0.0825-0.347,0.1676-0.3231
					c0.0177,0.0044,0.035,0.017,0.0512,0.0358c0.0592,0.0685,0.1035,0.2208,0.1001,0.3729C33.0557,6.029,32.979,6.179,32.894,6.1553
					l-0.0072,0.3596c0.1882,0.0486,0.3486-0.1388,0.3975-0.4449l0.1906,0.0514l0.0055-0.3561L33.29,5.7137
					c-0.0253-0.2197-0.1029-0.4168-0.2078-0.5381c-0.051-0.059-0.1086-0.1003-0.1696-0.1173
					c-0.2213-0.057-0.4054,0.2219-0.4125,0.6213c-0.002,0.1965-0.0825,0.347-0.1651,0.3259
					c-0.0183-0.0052-0.0359-0.018-0.0522-0.0369c-0.0599-0.0693-0.1031-0.2201-0.1016-0.3746
					c0.0036-0.1996,0.0801-0.3497,0.1652-0.3257l0.0072-0.3596c-0.1881-0.0488-0.3485,0.1386-0.3974,0.4446L31.7654,5.302
					L31.76,5.6582 M32.6422,20.5574c0.1868,0.0517,0.3486-0.1388,0.3961-0.4417l0.1905,0.0515l0.0072-0.3596l-0.1905-0.0515
					c-0.0262-0.2173-0.104-0.4132-0.2087-0.5343c-0.0513-0.0594-0.109-0.1008-0.1703-0.1176
					c-0.2197-0.0605-0.4038,0.2184-0.4124,0.6212c-0.0045,0.1938-0.0826,0.3469-0.1676,0.3231
					c-0.0177-0.0047-0.035-0.017-0.0511-0.0356c-0.0592-0.0685-0.1034-0.2214-0.0988-0.3762
					c0.002-0.1967,0.0801-0.3497,0.1651-0.3259l0.0057-0.3564c-0.1866-0.052-0.3485,0.1386-0.396,0.4416l-0.1905-0.0514
					l-0.0072,0.3596l0.1907,0.0515c0.025,0.2182,0.1023,0.4127,0.2066,0.5332c0.0518,0.0599,0.1102,0.1015,0.1722,0.1188
					c0.2197,0.0603,0.404-0.2187,0.411-0.6181c0.006-0.197,0.0826-0.3469,0.1652-0.3258c0.0193,0.0046,0.0378,0.0177,0.0549,0.0375
					c0.0594,0.0688,0.1015,0.2187,0.0988,0.374c-0.002,0.1965-0.0801,0.3497-0.1651,0.3259L32.6422,20.5574"></path><path fill="#5FAF5F" d="M29.3061,1L28.935,22.1682l6.7636,1.8305l0.3709-21.1687L29.3061,1z M35.2514,13.4803
				c-0.0005,0.0303-0.0015,0.0598-0.0028,0.0894l-0.1383,7.9243c-0.5219-0.1416-0.9549,0.3714-0.9686,1.146l-3.6166-0.9781
				c0.0091-0.5157-0.1708-1.0166-0.4463-1.3352c-0.138-0.1597-0.3001-0.2738-0.4742-0.321l0.2878-16.498
				c0.5222,0.142,0.9563-0.3747,0.97-1.1492l3.6154,0.9817c-0.0093,0.5157,0.1707,1.0166,0.4461,1.3353
				c0.138,0.1597,0.3001,0.2738,0.4742,0.3209l-0.1469,8.4143C35.2515,13.434,35.2518,13.4573,35.2514,13.4803z"></path></g><g><path fill="#E3E7F0" d="M30.4616,47.3455c-4.2249,2.2019-11.1057,2.21-15.3656,0c-4.2599-2.2023-4.2775-5.7805-0.0526-7.9824
				c4.2337-2.21,11.1144-2.2023,15.3656,0C34.669,41.565,34.6952,45.1356,30.4616,47.3455z"></path><path fill="#B6BDCA" d="M28.5584,40.4232c3.4964,1.6167,3.5151,4.2448,0.0411,5.8616c-3.483,1.621-9.1389,1.6165-12.6353-0.0002
			c-3.5058-1.621-3.5247-4.2404-0.0416-5.8614C19.3965,38.8065,25.0526,38.8022,28.5584,40.4232z"></path><circle cx="21.833" cy="27.696" r="17.666" fill="#7BB1FF"></circle><path fill="#D3DBEA" d="M5.1179 25.9093c.0648-.248.2003-.2371.3895-.1525.1033.0462.2352.0401.3258.1004.1195.0796.2934.1958.3004.3055.0313.4847.441.6635.7043.9735.0356-.0975.0416-.1838.0345-.269-.0472-.5647-.2598-1.396.2235-1.7861 1.3601-1.0987.4537-2.2098 1.7222-2.3318.6786-.0653-.1627-.831.7354-.9043.347-.0285.5869.0026.558-.3178-.0943-1.044 1.0624-1.5943 2.2901-2.1708-.9739-.611-1.509-1.3476-1.7573-2.3109-.0472-.0122-.0943-.0243-.1414-.0364-.1585.2487-.317.4974-.4755.7461-.0625-.0395-.125-.079-.1875-.1186.0241-.249.0483-.498.0706-.7287-1.1217-.7442-1.0019-.7904-1.4151-.7962-.1606.1848-.3169.3735-.4698.5649.0021.2199-.055.7669-.0039.9269.161.5039-.2827.5951-.3588 1.0626-.0541.3318-.0808.6679-.1239 1.0501-.3342-.2077-.6861-.293-.6578-.7147.0204-.3038.0028-.3995-.1739-.4368-1.3126 2.1697-2.1715 4.6444-2.4453 7.2928C4.7284 25.8424 5.0003 26.359 5.1179 25.9093zM6.7741 31.652c.1763-.0983.3585-.1999.6095-.3398-1.6661 0-1.0395-.113-1.382-1.4086-.0564-.2134-.1653-.3629-.4464-.2614-.0779.0281-.3035-.0992-.3066-.1627-.0525-1.0844.578-1.2155-.234-1.3108-.3132.3201-.5394.6296-.807.7128.0196.2967.0466.5913.0808.8838.2463.2422.5045.4506.8476.5506C5.5468 30.4356 5.2135 30.9093 6.7741 31.652zM12.3918 41.74c.0469-.0996.123-.205.2143-.2611 1.0166-.6243.5089-1.525.7821-1.6752.3237-.1778.4597-.626.9111-.6231.0715.0005.1447-.1058.2156-.1646.682-.5648.1654-1.8715 1.0085-2.1464.1197-.0391.3158-.6587.432-.876.1952-.3648.1728-.8106-.0991-1.0562-.3645-.3291-1.4576-1.3643-2.0759-1.2545-.5882.1045-.9-.1215-.9737-.7317-.0545-.451-.6052-.8174-1.0325-.6699-.3059.1054-.4371-.0027-.5223-.2997-.2033-.7086-.8568-1.1162-1.5561-1.0661-.8365.0602-.6611-1.1421-2.2168.4267-.0821.0827-.1645.2756-.1235.3521.584 1.0899-1.5663 1.8616-.3538 3.5121.1354.1844.1751.4719.1795.7133.0293 1.6058 1.5256 1.281 1.4728 2.3088-.0199.3866-.0414.773-.0625 1.1595.9428 1.0669 2.0125 2.0188 3.1855 2.8325C12.0609 42.2599 12.2132 42.1194 12.3918 41.74zM17.5774 10.547c-1.3659.3383-2.6691.8342-3.889 1.4695.0003.0028.0006.0056.001.0084.2258 1.9473-.7029 2.7612-.7481 3.4684-.0501.783 1.1157.8849 1.7615 1.4322.2602-.9038.3512-1.6606.9114-2.2018.2944-.2848.3498-.8599.9491-.7874.0585.0067.1305-.0858.1941-.1343.4243-.3275.2461-1.2906.6838-2.1862C17.7382 11.0073 17.4977 11.3325 17.5774 10.547zM10.4805 16.3119c.0308-.1281.0365-.3512.0963-.3668.3837-.1002.1778-.4001-.1117-1.0813.4753.064.7713.2325.7869-.1916.0105-.2838-.2295-.5839-.4114-.8053-.6416.5107-1.2473 1.0645-1.8117 1.658C9.216 15.5629 9.1446 15.5351 10.4805 16.3119z"></path><g><path fill="#D3DBEA" d="M31.1407,12.6821c-0.3321,0.3192-0.6618,0.6405-0.9783,0.9729c-0.0588,0.0618-0.0455,0.184-0.0837,0.3644
				c-0.133,0.0137-0.4703,0.1247-0.5405,0.0403c-0.1642-0.198-0.2002-0.4895-0.3016-0.7821c0.1988,0,0.2924-0.0014,0.3859,0.0004
				c0.3041,0.0047,0.5337-0.0852,0.5998-0.3986c0.0646-0.3069-0.2188-0.3177-0.392-0.4457
				c-0.5642-0.4173-1.3372-0.4852-1.8463-0.9952c-0.0736-0.0737-0.2557-0.0848-0.3822-0.0733
				c-0.391,0.0359-0.7793,0.0974-1.1689,0.1477c-0.5586,0.0719-1.1008,0.1502-1.2734,0.7911
				c-0.0545,0.2019-0.198,0.1477-0.5897,0.8133c-0.4087,0.6937,0.2832-0.0218-1.3876,1.3611
				c-0.4196,0.3479-0.471,0.5451-0.5284,1.484c-0.008,0.1312,0.1027,0.3307,0.2199,0.3864c0.1195,0.0567,0.8098-0.4056,0.9162-0.322
				c0.6804,0.5341,0.9031,1.0757,1.0033,1.061c0.9297-0.1344,0.1656-1.4211,1.1076-2.6614c0.2122-0.2796,0.474-0.528,0.7304-0.7749
				c0.089-0.0855,0.2283-0.1251,0.3447-0.1855c0.0435,0.1405,0.1557,0.303,0.1153,0.4176
				c-0.1276,0.3624-1.0621,1.2139-0.4716,1.6907c0.5719-0.074,1.0684-0.138,1.5644-0.202c0.1849,0.982-0.8919,0.8705-0.9373,1.015
				c-0.267,0.8443-2.3442,1.969-3.3875,0.7206c-0.1-0.1197-0.1971-0.2412-0.2955-0.3619c-0.1846,0.7865,0.1437,1.4178-0.5764,1.3136
				c-0.8921-0.1294-1.1892,1.3085-2.1276,1.4211c-0.3008,0.0363-0.4649,0.2426-0.264,0.4467
				c0.2117,0.2156,0.2167,0.4212,0.2061,0.68c-0.0617,1.505-1.9314,0.2691-1.506,1.2482c0.045,0.104,0.0229,0.1476-0.1335,1.1699
				c0.2488,0.1218,0.4479,0.2196,0.6868,0.3364c0.2859-0.1811,0.6062-0.1689,0.8858,0.1506
				c0.3736-0.5079-0.3889-0.1641,1.3832-2.131c0.3029-0.3357,2.2746,0.1833,2.5409,0.6473
				c0.1523,0.2656,0.2289,0.5697,0.3508,0.8942c0.2557-0.0223,0.2972-0.2825,0.3296-0.5348
				c0.1189-0.9283-0.9312-0.5413-0.9376-1.5354c0.6899,0.1656,0.0498,0.7197,1.1004,0.7799
				c0.5492,0.0314,0.5005,0.2552,1.0042,1.6285c0.3665-0.1833,0.5621-0.3817,0.5045-0.754
				c-0.0175-0.1129,0.0985-0.244,0.1533-0.3666c0.2351,0.1105,0.4432,0.0447,0.5661,0.7037
				c0.2354,1.2643,2.3202-0.1536,2.1097,0.937c-0.1735,0.8977-0.3885,1.212-0.9304,1.2673
				c-0.7881,0.0805-1.5359-0.0007-2.2726-0.3026c-0.5886-0.2412-0.6611-0.1815-0.7556,0.3925
				c-0.1072,0.6522-0.5009-0.2559-1.9669-0.6947c-0.521-0.1561-0.3871-0.1545-0.0481-1.2184
				c-2.9289,0.2438-1.9312,0.1471-2.3507,0.2753c-1.3507,0.4125-1.6992,0.2796-1.8229,1.0491
				c-0.9552-0.1753-0.7428,0.5032-0.9045,0.6897c-0.2196,0.2527-0.5156,0.4665-0.4421,0.8586
				c0.0087,0.046-0.0861,0.1484-0.1473,0.1603c-0.3246,0.0636-0.3821,0.321-0.5103,0.5452
				c-0.113,0.1976-0.7617,0.8181-0.7117,0.9355c0.4234,0.9955-0.6868,2.085,0.4247,3.0913c0.6616,0.5975-0.0298,0.8532,1.8029,1.631
				c1.3666,0.5806,2.6563-0.7015,3.0969-0.0791c0.169,0.2386,0.3449,0.2164,0.5711,0.2415c0.1341,0.0147,0.358,0.1208,0.3649,0.1991
				c0.1103,1.2607-0.4968,0.8636-0.0013,1.8344c0.2674,0.524,0.7189,0.979,0.6779,1.6382c-0.0482,0.7742-0.082,1.5598,0.0029,2.3283
				c0.0908,0.8216,0.3393,1.6271,0.4956,2.4436c0.0955,0.4992,0.3549,0.9172,0.5951,1.3607
				c0.2396,0.4424,0.3078,0.9665,0.4476,1.4427c2.1348-0.3471,2.4333-0.4642,3.2043-2.4681
				c0.1717-0.4457,0.4725-0.8982,0.4628-1.3431c-0.0137-0.6268,0.2074-0.9956,0.7565-1.3018
				c2.2037-1.2289-0.8998-3.7359,1.2856-4.8797c0.6692-0.3508,1.1128-0.882,1.4165-1.534c0.14-0.3005,0.3263-0.5819,0.4696-0.8813
				c0.0676-0.1409,0.0834-0.3037,0.1226-0.4568c-0.1625-0.0108-0.3307-0.0521-0.4866-0.027
				c-0.5772,0.0942-1.2326,0.1164-1.5219-0.3695c-0.2874-0.4827-0.6261-0.9438-0.8783-1.4391
				c-0.0851-0.167-0.9806-2.7692-1.0085-2.8584c-0.032-0.1024,0.0298-0.2307,0.0486-0.3472
				c0.1638,0.035,0.4795-0.0472,0.6429,0.5402c0.1296,0.4657-0.1232,0.43,0.3263,1.0405c1.3738,1.863,1.0377,2.7084,1.6637,2.7926
				c1.9547-0.9561,2.9456-0.9008,2.7913-1.9045c-0.0518-0.336,0.6337-0.4677,0.1346-1.0416
				c-0.1443-0.166-0.3136-0.313-0.4733-0.4701c-0.4652,0.5053-0.7885,0.5952-1.0619,0.2117
				c-0.3122-0.4381-0.496-0.9568-0.7356-1.4402c0.0367-0.0413,0.0734-0.0827,0.1101-0.124
				c0.2143,0.0816,0.5433,0.1089,0.6224,0.2548c0.5355,0.991,1.6221,0.6307,1.6847,0.8669c0.1614,0.608,1.9286,0.0315,2.1876,0.5916
				c0.8652,1.8743,0.8148,0.9305,1.2559,1.5491c0.474,0.6624,0.6331,1.4164,0.7079,2.1838
				C40.5677,23.7368,37.3112,16.5156,31.1407,12.6821z"></path></g><path fill="#272E3A" d="M26.3059,10.6233c17.4609,7.7316,11.7981,33.8169-7.14,33.8169
			c-1.5483,0-3.0419-0.2196-4.4729-0.5938c2.1848,0.9676,4.5968,1.5155,7.14,1.5155c9.7566,0,17.6658-7.9094,17.6658-17.6662
			C39.4987,19.4871,33.8925,12.6071,26.3059,10.6233z" opacity=".1"></path></g><g><path fill="#FFDD94" d="M9.6489,20.0953c-2.5061,1.4469-4.5309,4.9539-4.5227,7.8336s2.0462,4.0412,4.5523,2.5943
			c2.5061-1.4469,4.5309-4.9541,4.5227-7.8337S12.155,18.6484,9.6489,20.0953z"></path><path fill="#FEBB61" d="M10.514,21.8038l0.0019,0.6707c0.6187-0.1814,1.071,0.1216,1.0729,0.7838l-0.8202,0.4735
			c-0.0008-0.2802-0.3044-0.343-0.6615-0.1368c-0.3596,0.2076-0.6619,0.6202-0.6611,0.9004c0.0008,0.283,0.3044,0.3487,0.664,0.1411
			c0.8152-0.4707,1.4821-0.2008,1.4844,0.6057c0.0019,0.6679-0.4472,1.4914-1.0649,2.0238l0.0019,0.665l-0.8226,0.4749
			l-0.0019-0.665c-0.6187,0.1814-1.0735-0.1201-1.0754-0.7881l0.8202-0.4735c0.0008,0.2802,0.3044,0.3458,0.664,0.1382
			c0.3571-0.2062,0.6594-0.6215,0.6586-0.9018c-0.0008-0.283-0.3044-0.343-0.6615-0.1368c-0.8177,0.4721-1.4846,0.1995-1.4869-0.61
			c-0.0019-0.6622,0.4497-1.4871,1.0674-2.0195l-0.0019-0.6707L10.514,21.8038z"></path><path fill="#FFDD94" d="M8.5817,18.3638c1.5303-0.8835,2.9168-0.9655,3.918-0.3837l1.064,0.6183
		c-1.0012-0.5818-2.3877-0.4998-3.918,0.3839c-3.041,1.7557-5.4981,6.0115-5.4882,9.5059c0.0049,1.736,0.6178,2.9573,1.6062,3.5317
		l-1.064-0.6183c-0.9884-0.5744-1.6013-1.7959-1.6062-3.5317C3.0835,24.3754,5.5406,20.1197,8.5817,18.3638z"></path><path fill="#FEBB61" d="M15.1698,22.1302c0.0099,3.4944-2.4472,7.7502-5.4883,9.506c-3.041,1.7557-5.5142,0.3463-5.5241-3.148
			c-0.0099-3.4944,2.4472-7.7502,5.4882-9.506C12.6868,17.2264,15.1599,18.6358,15.1698,22.1302z M9.6784,30.5232
			c2.5061-1.4469,4.5309-4.954,4.5227-7.8337c-0.0082-2.8797-2.0462-4.041-4.5523-2.5941
			c-2.5061,1.4469-4.5309,4.9539-4.5227,7.8336S7.1723,31.97,9.6784,30.5232"></path></g></svg>