<svg xmlns="http://www.w3.org/2000/svg" viewBox="0 0 64 64" id="energy"><path fill="#d6b1ed" d="m14.73 26.21 14.92-14.92a17.986 17.986 0 0 1 25.49 0 17.986 17.986 0 0 1 0 25.49L38.36 53.56a17.986 17.986 0 0 1-25.49 0 17.977 17.977 0 0 1-1.91-23.24"></path><path fill="#efe6f3" d="M24.51 39.98c.09.07.16.15.24.23 1.11 1.21.95 3.17-.24 4.36-1.27 1.27-3.41 1.36-4.59 0l-4.59-5.31c-1.61-1.86-3.71-1.48-3.81.97-.16 3.78 1.22 7.61 4.15 10.54 5.55 5.55 14.32 5.55 19.88 0a4.14 4.14 0 0 0 0-5.86c-.07-.07-.15-.14-.22-.21l-6.25-5.39c-1.36-1.17-1.27-3.32 0-4.59 1.19-1.19 3.15-1.34 4.36-.24.08.07.16.15.23.24l5.04 5.84a4.641 4.641 0 0 0 6.55.48c.09-.08.17-.15.25-.24l3.67-3.69c1.9-1.9 1.89-4.98-.01-6.88-.03-.03-.06-.06-.1-.09l-5.57-5.25c-1.36-1.17-1.27-3.32 0-4.59 1.19-1.19 3.15-1.34 4.36-.24.08.07.16.15.23.24l4.59 5.31c1.61 1.86 3.71 1.48 3.81-.97.17-3.78-1.22-7.61-4.15-10.54-5.55-5.55-14.32-5.55-19.88 0a4.14 4.14 0 0 0 0 5.86c.07.07.15.14.22.21l6.25 5.39c.09.07.16.15.24.23 1.11 1.21.95 3.17-.24 4.36-1.27 1.27-3.41 1.36-4.59 0l-5.04-5.84a4.641 4.641 0 0 0-6.55-.48c-.09.08-.17.15-.25.24l-3.67 3.69c-1.9 1.9-1.89 4.98.01 6.88.03.03.06.06.1.09l5.57 5.25"></path><path fill="#fc76a8" d="M40.47 16.85c0 .91-.74 1.65-1.65 1.65-.91 0-1.65-.74-1.65-1.65 0-.91.74-1.65 1.65-1.65.91 0 1.65.74 1.65 1.65zm6.39 16.41a1.82 1.82 0 0 1-3.64 0c0-1 .82-1.82 1.82-1.82 1.01 0 1.82.82 1.82 1.82zM28.23 29.4a1.82 1.82 0 0 1-3.64 0c0-1 .82-1.82 1.82-1.82 1.01 0 1.82.82 1.82 1.82zm3.99 18.04c0 1.33-1.08 2.41-2.41 2.41s-2.41-1.08-2.41-2.41 1.08-2.41 2.41-2.41 2.41 1.08 2.41 2.41z"></path><path fill="#6df4c0" d="M57.33 48.9a2.949 2.949 0 1 1-5.9 0 2.949 2.949 0 1 1 5.9 0Z"></path><path fill="#fdda5c" d="M54.23 56.84a1.983 1.983 0 0 0-2.6-1.05s-.75.29-1.61.23c-.86-.06-1.62-.19-2.38-1.93-.44-1-1.61-1.46-2.61-1.03A1.988 1.988 0 0 0 44 55.67c1.28 2.92 3.82 4.17 5.74 4.3 1.93.14 3.45-.54 3.45-.54 1.01-.43 1.48-1.6 1.05-2.6zM13.2 9.82c.74-.81 2-.85 2.81-.11s.61.53 1.44.76c.83.23 1.59.37 2.89-1.02.75-.8 2.01-.84 2.81-.08.8.75.84 2.01.08 2.81-2.19 2.32-5 2.64-6.86 2.12-1.86-.52-3.07-1.67-3.07-1.67-.81-.74-.85-2-.11-2.81z"></path><path fill="#6df4c0" d="M15.51 28.15c0 1.56-1.27 2.83-2.83 2.83s-2.83-1.27-2.83-2.83 1.27-2.83 2.83-2.83 2.83 1.27 2.83 2.83Z"></path><path fill="#fc76a8" d="M22.7 48.32a1.25 1.25 0 0 0 0 2.5 1.25 1.25 0 0 0 0-2.5zM25 34.15a1.25 1.25 0 0 0 0 2.5 1.25 1.25 0 0 0 0-2.5zm15.62 1.8a1.25 1.25 0 0 0 0 2.5 1.25 1.25 0 0 0 0-2.5z"></path><path fill="#fdda5c" d="M13.01 17.92a1.25 1.25 0 1 0 0 2.5 1.25 1.25 0 0 0 0-2.5Z"></path><path fill="#fc76a8" d="M45.73 12.99a1.25 1.25 0 0 0 0 2.5 1.25 1.25 0 0 0 0-2.5zm5.11 4.1a1.25 1.25 0 1 0 0 2.5 1.25 1.25 0 0 0 0-2.5zM16.15 44.73a1.25 1.25 0 1 0 0 2.5 1.25 1.25 0 0 0 0-2.5z"></path></svg>