<svg xmlns="http://www.w3.org/2000/svg" enable-background="new 0 0 64 64" viewBox="0 0 64 64" id="productivity-increase"><path d="M34.6,28.55h8.07c1.16,0,2.16-0.16,3.07-0.5c3.03-1.11,5.04-3.75,5.23-6.88c0.19-2.98-1.29-5.71-3.87-7.26
		c1.31-2.27,0.48-4.44-0.94-5.55c-1.39-1.1-3.65-1.4-5.53,0.35c-1.94-2.56-5.14-3.72-8.49-3.05c-3.2,0.64-5.57,2.77-6.33,5.61
		c-2.21-0.85-4.49-0.55-6.07,0.81c-1.35,1.18-1.92,2.92-1.57,4.77h-0.1c-1.57,0-2.94,0.69-3.91,1.98c-1.31,1.75-1.6,4.26-0.71,6.25
		c0.82,1.82,2.49,2.92,4.74,3.1h10.99c0.2,1.15,1.11,2.06,2.27,2.27v2.49h-2.31c-1.06,0-1.95,0.75-2.18,1.75h-4.58
		c-0.24-1.33-1.4-2.35-2.79-2.35c-1.56,0-2.83,1.28-2.83,2.84s1.27,2.84,2.83,2.84c1.4,0,2.55-1.02,2.79-2.35h4.58
		c0.22,1,1.12,1.75,2.18,1.75h5.88c1.07,0,1.96-0.75,2.18-1.75h4.58c0.24,1.33,1.39,2.35,2.79,2.35c1.56,0,2.84-1.28,2.84-2.84
		s-1.28-2.84-2.84-2.84c-1.39,0-2.55,1.02-2.79,2.35H37.2c-0.23-1-1.12-1.75-2.18-1.75h-2.59v-2.49
		C33.46,30.26,34.28,29.52,34.6,28.55z M21.44,35.18c0,0,0,0,0,0.01c0,1.01-0.83,1.84-1.85,1.84s-1.85-0.83-1.85-1.85
		s0.83-1.85,1.85-1.85s1.84,0.82,1.85,1.84C21.44,35.17,21.44,35.17,21.44,35.18z M42.72,35.18c0-0.01,0-0.01,0-0.01
		c0.01-1.02,0.83-1.84,1.85-1.84s1.85,0.83,1.85,1.85s-0.83,1.85-1.85,1.85s-1.84-0.82-1.85-1.84V35.18z M29.18,27.19L18.23,27.2
		c-1.84-0.15-3.21-1.05-3.88-2.53c-0.74-1.64-0.49-3.8,0.6-5.25c0.91-1.21,2.25-1.75,3.79-1.54c0.16,0.03,0.33-0.03,0.44-0.16
		c0.11-0.13,0.15-0.31,0.1-0.47c-0.53-1.71-0.11-3.37,1.11-4.42c1.4-1.22,3.54-1.39,5.56-0.44c0.14,0.07,0.3,0.07,0.43,0
		c0.14-0.07,0.23-0.2,0.26-0.35c0.5-2.73,2.68-4.81,5.69-5.41c2.48-0.5,5.84,0.06,7.83,3.11c0.08,0.13,0.22,0.21,0.38,0.23
		c0.16,0.01,0.3-0.05,0.4-0.17c1.54-1.75,3.43-1.6,4.61-0.67c1.2,0.95,1.8,2.76,0.45,4.68c-0.08,0.11-0.11,0.26-0.08,0.4
		c0.04,0.14,0.13,0.25,0.26,0.32c2.52,1.3,3.98,3.82,3.81,6.58c-0.17,2.74-1.93,5.04-4.59,6.02c-0.79,0.29-1.69,0.43-2.73,0.43
		h-7.93c-0.07-1.49-1.29-2.69-2.8-2.69C30.56,24.87,29.41,25.88,29.18,27.19z M35.02,33.92c0.69,0,1.25,0.56,1.25,1.25v0.01
		c0,0,0,0,0,0.01c0,0.69-0.56,1.25-1.25,1.25h-5.88c-0.69,0-1.25-0.56-1.25-1.25c0-0.01,0-0.01,0-0.01v-0.01
		c0-0.69,0.56-1.25,1.25-1.25h2.78c0.01,0,0.02,0.01,0.02,0.01c0.01,0,0.01-0.01,0.02-0.01H35.02z M31.94,29.51
		c-1.01,0-1.83-0.82-1.83-1.82c0-1.01,0.82-1.83,1.83-1.83s1.82,0.82,1.82,1.83C33.76,28.69,32.95,29.51,31.94,29.51z"></path><path d="M34.95,24.26c-0.1,0.11-0.23,0.17-0.37,0.17c-0.12,0-0.23-0.04-0.32-0.12c-1.74-1.49-3.21-1.5-4.65-0.03
		c-0.19,0.2-0.5,0.2-0.69,0.01c-0.2-0.19-0.2-0.5-0.01-0.69c1.25-1.29,3.31-2.34,5.99-0.03C35.11,23.74,35.13,24.05,34.95,24.26z"></path><path d="M37.24,21.93c-0.1,0.11-0.24,0.17-0.38,0.17c-0.11,0-0.23-0.04-0.32-0.12c-3.11-2.66-6.12-2.66-9.2,0
		c-0.21,0.18-0.52,0.16-0.7-0.05s-0.15-0.52,0.05-0.69c3.47-3,7-3,10.49-0.01C37.39,21.41,37.41,21.72,37.24,21.93z"></path><path d="M39.52,19.81c-0.1,0.11-0.24,0.17-0.37,0.17c-0.12,0-0.23-0.04-0.32-0.12c-4.7-4-9.16-4-13.65,0
		c-0.21,0.18-0.52,0.16-0.7-0.04c-0.18-0.2-0.16-0.52,0.04-0.7c4.86-4.32,9.88-4.33,14.94,0C39.67,19.29,39.7,19.6,39.52,19.81z"></path><path d="M61.51,1.71H2.5C1.12,1.71,0,2.82,0,4.2v42.97c0,1.38,1.12,2.5,2.5,2.5h23.81v5.19c-3.61,0.26-6.47,3.27-6.47,6.94
		c0,0.27,0.22,0.49,0.49,0.49h23.63c0.27,0,0.49-0.22,0.49-0.49c0-3.67-2.86-6.68-6.47-6.94v-5.19h23.53c1.37,0,2.49-1.12,2.49-2.5
		V4.2C64,2.82,62.88,1.71,61.51,1.71z M43.45,61.31H20.84c0.25-3.07,2.83-5.49,5.96-5.49h10.69C40.62,55.82,43.2,58.24,43.45,61.31z
		 M27.29,54.84v-5.17H37v5.17H27.29z M63.02,47.17c0,0.83-0.68,1.51-1.51,1.51H2.5c-0.84,0-1.51-0.68-1.51-1.51v-5.38h62.03V47.17z
		 M63.02,40.8H0.99V4.2c0-0.83,0.67-1.51,1.51-1.51h59.01c0.83,0,1.51,0.68,1.51,1.51V40.8z"></path><path fill="#716f70" d="M43.45 61.31H20.84c.25-3.07 2.83-5.49 5.96-5.49h10.69C40.62 55.82 43.2 58.24 43.45 61.31zM.99 41.79v5.38c0 .83.67 1.51 1.51 1.51h59.01c.83 0 1.51-.68 1.51-1.51v-5.38H.99zM32 47.34c-1.08 0-1.97-.89-1.97-1.97 0-1.09.89-1.97 1.97-1.97 1.09 0 1.97.88 1.97 1.97C33.97 46.45 33.09 47.34 32 47.34z"></path><path fill="#1cc0f9" d="M61.51,2.69H2.5c-0.84,0-1.51,0.68-1.51,1.51v36.6h62.03V4.2C63.02,3.37,62.34,2.69,61.51,2.69z M45.74,28.05
		c-0.91,0.34-1.91,0.5-3.07,0.5H34.6c-0.32,0.97-1.14,1.71-2.17,1.9v2.49h2.59c1.06,0,1.95,0.75,2.18,1.75h4.58
		c0.24-1.33,1.4-2.35,2.79-2.35c1.56,0,2.84,1.28,2.84,2.84s-1.28,2.84-2.84,2.84c-1.4,0-2.55-1.02-2.79-2.35H37.2
		c-0.22,1-1.11,1.75-2.18,1.75h-5.88c-1.06,0-1.96-0.75-2.18-1.75h-4.58c-0.24,1.33-1.39,2.35-2.79,2.35
		c-1.56,0-2.83-1.28-2.83-2.84s1.27-2.84,2.83-2.84c1.39,0,2.55,1.02,2.79,2.35h4.58c0.23-1,1.12-1.75,2.18-1.75h2.31v-2.49
		c-1.16-0.21-2.07-1.12-2.27-2.27H18.19c-2.25-0.18-3.92-1.28-4.74-3.1c-0.89-1.99-0.6-4.5,0.71-6.25c0.97-1.29,2.34-1.98,3.91-1.98
		h0.1c-0.35-1.85,0.22-3.59,1.57-4.77c1.58-1.36,3.86-1.66,6.07-0.81c0.76-2.84,3.13-4.97,6.33-5.61c3.35-0.67,6.55,0.49,8.49,3.05
		c1.88-1.75,4.14-1.45,5.53-0.35c1.42,1.11,2.25,3.28,0.94,5.55c2.58,1.55,4.06,4.28,3.87,7.26C50.78,24.3,48.77,26.94,45.74,28.05z
		"></path><path fill="#db6767" d="M46.42 35.18c0 1.02-.83 1.85-1.85 1.85s-1.84-.82-1.85-1.84v-.01c0-.01 0-.01 0-.01.01-1.02.83-1.84 1.85-1.84S46.42 34.16 46.42 35.18zM36.27 35.17v.01c0 0 0 0 0 .01 0 .69-.56 1.25-1.25 1.25h-5.88c-.69 0-1.25-.56-1.25-1.25 0-.01 0-.01 0-.01v-.01c0-.69.56-1.25 1.25-1.25h2.78c.01 0 .02.01.02.01.01 0 .01-.01.02-.01h3.06C35.71 33.92 36.27 34.48 36.27 35.17zM21.44 35.17c0 0 0 0 0 .01 0 0 0 0 0 .01 0 1.01-.83 1.84-1.85 1.84s-1.85-.83-1.85-1.85.83-1.85 1.85-1.85S21.43 34.15 21.44 35.17zM33.76 27.69c0 1-.81 1.82-1.82 1.82s-1.83-.82-1.83-1.82c0-1.01.82-1.83 1.83-1.83S33.76 26.68 33.76 27.69z"></path><path fill="#cec4c4" d="M46.18,14.53c-0.13-0.07-0.22-0.18-0.26-0.32c-0.03-0.14,0-0.29,0.08-0.4c1.35-1.92,0.75-3.73-0.45-4.68
		c-1.18-0.93-3.07-1.08-4.61,0.67c-0.1,0.12-0.24,0.18-0.4,0.17c-0.16-0.02-0.3-0.1-0.38-0.23c-1.99-3.05-5.35-3.61-7.83-3.11
		c-3.01,0.6-5.19,2.68-5.69,5.41c-0.03,0.15-0.12,0.28-0.26,0.35c-0.13,0.07-0.29,0.07-0.43,0c-2.02-0.95-4.16-0.78-5.56,0.44
		c-1.22,1.05-1.64,2.71-1.11,4.42c0.05,0.16,0.01,0.34-0.1,0.47c-0.11,0.13-0.28,0.19-0.44,0.16c-1.54-0.21-2.88,0.33-3.79,1.54
		c-1.09,1.45-1.34,3.61-0.6,5.25c0.67,1.48,2.04,2.38,3.88,2.53l10.95-0.01c0.23-1.31,1.38-2.32,2.76-2.32c1.51,0,2.73,1.2,2.8,2.69
		h7.93c1.04,0,1.94-0.14,2.73-0.43c2.66-0.98,4.42-3.28,4.59-6.02C50.16,18.35,48.7,15.83,46.18,14.53z M34.95,24.26
		c-0.1,0.11-0.23,0.17-0.37,0.17c-0.12,0-0.23-0.04-0.32-0.12c-1.74-1.49-3.21-1.5-4.65-0.03c-0.19,0.2-0.5,0.2-0.69,0.01
		c-0.2-0.19-0.2-0.5-0.01-0.69c1.25-1.29,3.31-2.34,5.99-0.03C35.11,23.74,35.13,24.05,34.95,24.26z M37.24,21.93
		c-0.1,0.11-0.24,0.17-0.38,0.17c-0.11,0-0.23-0.04-0.32-0.12c-3.11-2.66-6.12-2.66-9.2,0c-0.21,0.18-0.52,0.16-0.7-0.05
		s-0.15-0.52,0.05-0.69c3.47-3,7-3,10.49-0.01C37.39,21.41,37.41,21.72,37.24,21.93z M39.52,19.81c-0.1,0.11-0.24,0.17-0.37,0.17
		c-0.12,0-0.23-0.04-0.32-0.12c-4.7-4-9.16-4-13.65,0c-0.21,0.18-0.52,0.16-0.7-0.04c-0.18-0.2-0.16-0.52,0.04-0.7
		c4.86-4.32,9.88-4.33,14.94,0C39.67,19.29,39.7,19.6,39.52,19.81z"></path><path d="M32,43.4c-1.08,0-1.97,0.88-1.97,1.97c0,1.08,0.89,1.97,1.97,1.97c1.09,0,1.97-0.89,1.97-1.97
		C33.97,44.28,33.09,43.4,32,43.4z M32,46.35c-0.54,0-0.98-0.44-0.98-0.98c0-0.55,0.44-0.99,0.98-0.99c0.55,0,0.99,0.44,0.99,0.99
		C32.99,45.91,32.55,46.35,32,46.35z"></path><path fill="#716f70" d="M32.99,45.37c0,0.54-0.44,0.98-0.99,0.98c-0.54,0-0.98-0.44-0.98-0.98c0-0.55,0.44-0.99,0.98-0.99
		C32.55,44.38,32.99,44.82,32.99,45.37z"></path></svg>