<svg xmlns="http://www.w3.org/2000/svg" enable-background="new 0 0 1024 1024" viewBox="0 0 1024 1024" id="mathematics"><path d="M153.98,471.5h284.04c18.46,0,33.48-15.02,33.48-33.48V153.98c0-18.46-15.02-33.48-33.48-33.48H153.98
		c-18.46,0-33.48,15.02-33.48,33.48v284.04C120.5,456.48,135.52,471.5,153.98,471.5z M135.5,153.98c0-10.19,8.29-18.48,18.48-18.48
		h284.04c10.19,0,18.48,8.29,18.48,18.48v284.04c0,10.19-8.29,18.48-18.48,18.48H153.98c-10.19,0-18.48-8.29-18.48-18.48V153.98z"></path><path d="M208 327.5h56.5V384c0 4.14 3.36 7.5 7.5 7.5h48c4.14 0 7.5-3.36 7.5-7.5v-56.5H384c4.14 0 7.5-3.36 7.5-7.5v-48c0-4.14-3.36-7.5-7.5-7.5h-56.5V208c0-4.14-3.36-7.5-7.5-7.5h-48c-4.14 0-7.5 3.36-7.5 7.5v56.5H208c-4.14 0-7.5 3.36-7.5 7.5v48C200.5 324.14 203.86 327.5 208 327.5zM215.5 279.5H272c4.14 0 7.5-3.36 7.5-7.5v-56.5h33V272c0 4.14 3.36 7.5 7.5 7.5h56.5v33H320c-4.14 0-7.5 3.36-7.5 7.5v56.5h-33V320c0-4.14-3.36-7.5-7.5-7.5h-56.5V279.5zM816 264.5H640c-4.14 0-7.5 3.36-7.5 7.5v48c0 4.14 3.36 7.5 7.5 7.5h176c4.14 0 7.5-3.36 7.5-7.5v-48C823.5 267.86 820.14 264.5 816 264.5zM808.5 312.5h-161v-33h161V312.5zM816 648.5H640c-4.14 0-7.5 3.36-7.5 7.5v48c0 4.14 3.36 7.5 7.5 7.5h176c4.14 0 7.5-3.36 7.5-7.5v-48C823.5 651.86 820.14 648.5 816 648.5zM808.5 696.5h-161v-33h161V696.5zM816 744.5H640c-4.14 0-7.5 3.36-7.5 7.5v48c0 4.14 3.36 7.5 7.5 7.5h176c4.14 0 7.5-3.36 7.5-7.5v-48C823.5 747.86 820.14 744.5 816 744.5zM808.5 792.5h-161v-33h161V792.5zM382.7 682.75c0-1.99-.79-3.9-2.2-5.3l-33.95-33.95c-2.93-2.93-7.68-2.93-10.61 0L296 683.44l-39.95-39.95c-2.93-2.93-7.68-2.93-10.61 0l-33.95 33.95c-1.41 1.41-2.2 3.31-2.2 5.3s.79 3.9 2.2 5.3L251.44 728l-39.95 39.95c-2.93 2.93-2.93 7.68 0 10.61l33.95 33.95c1.41 1.41 3.31 2.2 5.3 2.2 1.99 0 3.9-.79 5.3-2.2L296 772.56l39.95 39.95c1.46 1.46 3.38 2.2 5.3 2.2s3.84-.73 5.3-2.2l33.95-33.95c1.41-1.41 2.2-3.31 2.2-5.3s-.79-3.9-2.2-5.3L340.56 728l39.95-39.95C381.91 686.65 382.7 684.74 382.7 682.75zM324.65 722.7c-1.41 1.41-2.2 3.31-2.2 5.3s.79 3.9 2.2 5.3l39.95 39.95-23.34 23.34-39.95-39.95c-1.46-1.46-3.38-2.2-5.3-2.2s-3.84.73-5.3 2.2l-39.95 39.95-23.34-23.34 39.95-39.95c2.93-2.93 2.93-7.68 0-10.61l-39.95-39.95 23.34-23.34 39.95 39.95c2.93 2.93 7.68 2.93 10.61 0l39.95-39.95 23.34 23.34L324.65 722.7z"></path><path d="M454.02 552.5H153.98c-18.46 0-33.48 15.02-33.48 33.48v284.04c0 18.46 15.02 33.48 33.48 33.48h300.04c18.46 0 33.48-15.02 33.48-33.48V585.98C487.5 567.52 472.48 552.5 454.02 552.5zM472.5 870.02c0 10.19-8.29 18.48-18.48 18.48H153.98c-10.19 0-18.48-8.29-18.48-18.48V585.98c0-10.19 8.29-18.48 18.48-18.48h300.04c10.19 0 18.48 8.29 18.48 18.48V870.02zM870.02 120.5H585.98c-18.46 0-33.48 15.02-33.48 33.48v284.04c0 18.46 15.02 33.48 33.48 33.48h284.04c18.46 0 33.48-15.02 33.48-33.48V153.98C903.5 135.52 888.48 120.5 870.02 120.5zM888.5 438.02c0 10.19-8.29 18.48-18.48 18.48H585.98c-10.19 0-18.48-8.29-18.48-18.48V153.98c0-10.19 8.29-18.48 18.48-18.48h284.04c10.19 0 18.48 8.29 18.48 18.48V438.02zM870.02 552.5H585.98c-18.46 0-33.48 15.02-33.48 33.48v284.04c0 18.46 15.02 33.48 33.48 33.48h284.04c18.46 0 33.48-15.02 33.48-33.48V585.98C903.5 567.52 888.48 552.5 870.02 552.5zM888.5 870.02c0 10.19-8.29 18.48-18.48 18.48H585.98c-10.19 0-18.48-8.29-18.48-18.48V585.98c0-10.19 8.29-18.48 18.48-18.48h284.04c10.19 0 18.48 8.29 18.48 18.48V870.02z"></path></svg>