<svg xmlns="http://www.w3.org/2000/svg" xmlns:xlink="http://www.w3.org/1999/xlink" viewBox="0 0 64 64" id="mathematics"><defs><linearGradient id="a" x1="4.241" x2="76.101" y1="11" y2="11" gradientUnits="userSpaceOnUse"><stop offset="0" stop-color="#e93e3a"></stop><stop offset=".358" stop-color="#ed683c"></stop><stop offset=".714" stop-color="#f3903f"></stop><stop offset="1" stop-color="#fdc70c"></stop></linearGradient><linearGradient id="b" x1="4.241" x2="76.101" y1="22" y2="22" xlink:href="#a"></linearGradient><linearGradient id="c" x1="4.241" x2="76.101" y1="32" y2="32" xlink:href="#a"></linearGradient><linearGradient id="d" x1="4.241" x2="76.101" y1="42" y2="42" xlink:href="#a"></linearGradient><linearGradient id="e" x1="4.241" x2="76.101" y1="12" y2="12" xlink:href="#a"></linearGradient></defs><path fill="url(#a)" d="M39,6H11a1,1,0,0,0-1,1v8a1,1,0,0,0,1,1H39a1,1,0,0,0,1-1V7A1,1,0,0,0,39,6Zm-1,8H12V8H38Z"></path><path fill="url(#b)" d="M17 18H11a1 1 0 0 0-1 1v6a1 1 0 0 0 1 1h6a1 1 0 0 0 1-1V19A1 1 0 0 0 17 18zm-1 6H12V20h4zM28 18H22a1 1 0 0 0-1 1v6a1 1 0 0 0 1 1h6a1 1 0 0 0 1-1V19A1 1 0 0 0 28 18zm-1 6H23V20h4zM39 18H33a1 1 0 0 0-1 1v6a1 1 0 0 0 1 1h6a1 1 0 0 0 1-1V19A1 1 0 0 0 39 18zm-1 6H34V20h4z"></path><path fill="url(#c)" d="M17 28H11a1 1 0 0 0-1 1v6a1 1 0 0 0 1 1h6a1 1 0 0 0 1-1V29A1 1 0 0 0 17 28zm-1 6H12V30h4zM28 28H22a1 1 0 0 0-1 1v6a1 1 0 0 0 1 1h6a1 1 0 0 0 1-1V29A1 1 0 0 0 28 28zm-1 6H23V30h4zM39 28H33a1 1 0 0 0-1 1v6a1 1 0 0 0 1 1h6a1 1 0 0 0 1-1V29A1 1 0 0 0 39 28zm-1 6H34V30h4z"></path><path fill="url(#d)" d="M17 38H11a1 1 0 0 0-1 1v6a1 1 0 0 0 1 1h6a1 1 0 0 0 1-1V39A1 1 0 0 0 17 38zm-1 6H12V40h4zM28 38H22a1 1 0 0 0-1 1v6a1 1 0 0 0 1 1h6a1 1 0 0 0 1-1V39A1 1 0 0 0 28 38zm-1 6H23V40h4zM39 38H33a1 1 0 0 0-1 1v6a1 1 0 0 0 1 1h6a1 1 0 0 0 1-1V39A1 1 0 0 0 39 38zm-1 6H34V40h4z"></path><path fill="url(#c)" d="M57.383,14.076a1,1,0,0,0-1.09.217L44,26.586V5a3,3,0,0,0-3-3H9A3,3,0,0,0,6,5V47a3,3,0,0,0,3,3H20.586L10.293,60.293A1,1,0,0,0,11,62H57a1,1,0,0,0,1-1V15A1,1,0,0,0,57.383,14.076ZM32.6,50H41a3,3,0,0,0,3-3V39.143l4-3.81V52H30.5ZM8,47V5A1,1,0,0,1,9,4H41a1,1,0,0,1,1,1V47a1,1,0,0,1-1,1H9A1,1,0,0,1,8,47ZM56,60H52V57H50v3H47V58H45v2H42V58H40v2H37V57H35v3H32V58H30v2H27V58H25v2H22V57H20v3H13.414l10-10H29.7l-2.389,2.276A1,1,0,0,0,28,54H49a1,1,0,0,0,1-1V33a1,1,0,0,0-1.689-.724L44,36.381V29.414l12-12Z"></path><rect width="2" height="2" x="33" y="11" fill="url(#e)"></rect><rect width="2" height="2" x="29" y="11" fill="url(#e)"></rect><rect width="2" height="2" x="25" y="11" fill="url(#e)"></rect></svg>