<svg xmlns="http://www.w3.org/2000/svg" viewBox="0 0 32 32" id="microscope"><path fill="#d1e6e9" d="M22,11c2.18,2.72,4,4.41,4,7.6,0,4.19-2.7,5.72-7,9.4V21c1.42-.71,1.93-.86,2.34-1.69a2.28,2.28,0,0,0-.26-2.46L18,13Z"></path><path fill="#68c7d3" d="M8,28H22a2,2,0,0,1,2,2v1a0,0,0,0,1,0,0H6a0,0,0,0,1,0,0V30A2,2,0,0,1,8,28Z"></path><path fill="#a1d8df" d="M22,28H16V23a3,3,0,0,1,6,0Z"></path><rect width="8" height="2" x="8" y="24" fill="#68c7d3"></rect><path fill="#d1e6e9" d="M20,23a1,1,0,0,1-2,0A1,1,0,0,1,20,23Z"></path><rect width="4" height="4" x="18.6" y="1.73" fill="#a1d8df" transform="rotate(30 20.602 3.74)"></rect><rect width="8" height="2" x="10.1" y="13.99" fill="#a1d8df" transform="rotate(30 14.095 14.983)"></rect><rect width="2" height="2" x="10.37" y="14.72" fill="#30acc2" transform="rotate(30 11.37 15.713)"></rect><rect width="2" height="2" x="13.83" y="16.72" fill="#30acc2" transform="rotate(30 14.83 17.726)"></rect><rect width="6" height="10" x="14.1" y="4.79" fill="#68c7d3" transform="rotate(30 17.105 9.797)"></rect><circle cx="20" cy="12" r="3" fill="#a1d8df"></circle><path fill="#d1e6e9" d="M21,12a1,1,0,0,1-2,0A1,1,0,0,1,21,12Z"></path></svg>