<svg xmlns="http://www.w3.org/2000/svg" enable-background="new 0 0 48 48" viewBox="0 0 48 48" id="physics"><g><path d="M42,36.25h-1.25v-25.5H42c0.40997,0,0.75-0.34003,0.75-0.75c0-0.41003-0.34003-0.75-0.75-0.75H26.44
		c0.19-0.38,0.31-0.79999,0.31-1.25c0-1.52002-1.22998-2.75-2.75-2.75S21.25,6.47998,21.25,8c0,0.45001,0.12,0.87,0.31,1.25H6
		c-0.40997,0-0.75,0.33997-0.75,0.75c0,0.40997,0.34003,0.75,0.75,0.75h1.25v25.5H6c-0.40997,0-0.75,0.33997-0.75,0.75
		c0,0.40997,0.34003,0.75,0.75,0.75h17.25v3.5H22c-0.40997,0-0.75,0.33997-0.75,0.75c0,0.40997,0.34003,0.75,0.75,0.75h4
		c0.40997,0,0.75-0.34003,0.75-0.75c0-0.41003-0.34003-0.75-0.75-0.75h-1.25v-3.5H42c0.40997,0,0.75-0.34003,0.75-0.75
		C42.75,36.58997,42.40997,36.25,42,36.25z M24,6.75c0.69,0,1.25,0.56,1.25,1.25S24.69,9.25,24,9.25S22.75,8.69,22.75,8
		S23.31,6.75,24,6.75z M39.25,13.25h-3c-0.40997,0-0.75,0.33997-0.75,0.75c0,0.40997,0.34003,0.75,0.75,0.75h3v21.5H8.75v-21.5h21
		c0.40997,0,0.75-0.34003,0.75-0.75c0-0.41003-0.34003-0.75-0.75-0.75h-21v-2.5h30.5V13.25z"></path><path d="M14 25.75c.41406 0 .75-.33594.75-.75s-.33594-.75-.75-.75h-3c-.41406 0-.75.33594-.75.75v8c0 .41406.33594.75.75.75h3c.41406 0 .75-.33594.75-.75s-.33594-.75-.75-.75h-2.25v-2.5H14c.41406 0 .75-.33594.75-.75s-.33594-.75-.75-.75h-2.25v-2.5H14zM18 26.75h-1c-.41406 0-.75.33594-.75.75s.33594.75.75.75h1c.41406 0 .75-.33594.75-.75S18.41406 26.75 18 26.75zM18 29.75h-1c-.41406 0-.75.33594-.75.75s.33594.75.75.75h1c.41406 0 .75-.33594.75-.75S18.41406 29.75 18 29.75zM25.5 25.25c-.57617 0-1.10156.21777-1.5.57422C23.60156 25.46777 23.07617 25.25 22.5 25.25c-1.24023 0-2.25 1.00977-2.25 2.25V33c0 .41406.33594.75.75.75s.75-.33594.75-.75v-5.5c0-.41309.33691-.75.75-.75s.75.33691.75.75V29c0 .41406.33594.75.75.75s.75-.33594.75-.75v-1.5c0-.41309.33691-.75.75-.75s.75.33691.75.75V33c0 .41406.33594.75.75.75s.75-.33594.75-.75v-5.5C27.75 26.25977 26.74023 25.25 25.5 25.25zM31.5 25.25c-1.24023 0-2.25 1.00977-2.25 2.25v4c0 1.24023 1.00977 2.25 2.25 2.25s2.25-1.00977 2.25-2.25V31c0-.41406-.33594-.75-.75-.75s-.75.33594-.75.75v.5c0 .41309-.33691.75-.75.75s-.75-.33691-.75-.75v-4c0-.41309.33691-.75.75-.75s.75.33691.75.75V28c0 .41406.33594.75.75.75s.75-.33594.75-.75v-.5C33.75 26.25977 32.74023 25.25 31.5 25.25zM37.75 20.41406c0-1.30103-1.10708-2.16406-2.33594-2.16406-1.19336 0-2.16406.9707-2.16406 2.16406 0 .41406.33594.75.75.75s.75-.33594.75-.75c0-.36621.29785-.66406.66406-.66406.40696 0 .83594.17218.83594.66406 0 .1748-.07129.34619-.19434.46973l-2.58594 2.58594c-.21484.21436-.27832.53711-.16309.81738C33.42285 24.56738 33.69629 24.75 34 24.75h3c.41406 0 .75-.33594.75-.75s-.33594-.75-.75-.75h-1.18945l1.30664-1.30615C37.51953 21.54053 37.75 20.98292 37.75 20.41406z"></path><circle cx="11" cy="18" r=".75"></circle><path d="M14,18.75h10c0.41406,0,0.75-0.33594,0.75-0.75s-0.33594-0.75-0.75-0.75H14c-0.41406,0-0.75,0.33594-0.75,0.75
		S13.58594,18.75,14,18.75z"></path><circle cx="11" cy="21" r=".75"></circle><path d="M14,21.75h10c0.41406,0,0.75-0.33594,0.75-0.75s-0.33594-0.75-0.75-0.75H14c-0.41406,0-0.75,0.33594-0.75,0.75
		S13.58594,21.75,14,21.75z"></path><circle cx="33" cy="14" r=".75"></circle></g></svg>